<?xml version="1.0" encoding="UTF-8"?>
<svg version="1.1" xmlns="http://www.w3.org/2000/svg" width="512" height="512">
<path d="M0 0 C4.07371199 0.00914608 8.14735849 -0.00496601 12.22105694 -0.01591969 C20.17765482 -0.03360871 28.13410087 -0.02990815 36.09070444 -0.01826912 C42.56324498 -0.00919692 49.03574329 -0.00802708 55.50828838 -0.01236439 C56.8956167 -0.01328379 56.8956167 -0.01328379 58.31097186 -0.01422176 C60.19047309 -0.01550079 62.06997432 -0.01679765 63.94947553 -0.01811212 C81.53031666 -0.02948975 99.11107405 -0.0164486 116.69190145 0.00508934 C131.74277919 0.02295775 146.79353347 0.01985285 161.84440899 0.0014143 C179.36683906 -0.02004238 196.88919593 -0.02839137 214.41163731 -0.01613665 C216.28382014 -0.01486259 218.15600299 -0.0136051 220.02818584 -0.01236439 C220.9490843 -0.01174729 221.86998275 -0.01113018 222.81878722 -0.01049438 C229.27568975 -0.00705584 235.73254545 -0.01283737 242.18944073 -0.0222826 C250.06951944 -0.03355746 257.949439 -0.03034815 265.82949972 -0.00915962 C269.84197168 0.00127756 273.8541793 0.0055997 277.86664867 -0.00775623 C309.72328262 -0.10471402 337.99599089 4.32507475 361.76823711 27.52289867 C362.61386211 28.32727367 363.45948711 29.13164867 364.33073711 29.96039867 C365.53729961 31.22883617 365.53729961 31.22883617 366.76823711 32.52289867 C367.76597149 33.52836742 367.76597149 33.52836742 368.78386211 34.55414867 C391.33652473 58.18074761 394.3945222 87.69469143 394.29113579 118.75466156 C394.2819897 122.82837355 394.2961018 126.90202005 394.30705547 130.9757185 C394.3247445 138.93231638 394.32104394 146.88876243 394.30940491 154.845366 C394.30033271 161.31790654 394.29916287 167.79040485 394.30350018 174.26294994 C394.30411311 175.18783549 394.30472604 176.11272104 394.30535755 177.06563342 C394.30663658 178.94513465 394.30793344 180.82463588 394.30924791 182.70413709 C394.32062553 200.28497822 394.30758439 217.86573561 394.28604645 235.44656301 C394.26817804 250.49744075 394.27128294 265.54819503 394.28972149 280.59907055 C394.31117816 298.12150062 394.31952716 315.64385749 394.30727243 333.16629887 C394.30599838 335.0384817 394.30474089 336.91066455 394.30350018 338.7828474 C394.30288307 339.70374586 394.30226597 340.62464431 394.30163017 341.57344878 C394.29819163 348.03035131 394.30397316 354.48720701 394.31341839 360.94410229 C394.32469325 368.824181 394.32148393 376.70410056 394.30029541 384.58416128 C394.28985823 388.59663324 394.28553609 392.60884086 394.29889202 396.62131023 C394.3958498 428.47794418 389.96606104 456.75065245 366.76823711 480.52289867 C365.96386211 481.36852367 365.15948711 482.21414867 364.33073711 483.08539867 C363.48511211 483.88977367 362.63948711 484.69414867 361.76823711 485.52289867 C361.09792461 486.18805492 360.42761211 486.85321117 359.73698711 487.53852367 C336.11038818 510.09118629 306.59644436 513.14918376 275.53647423 513.04579735 C271.46276224 513.03665126 267.38911574 513.05076336 263.31541729 513.06171703 C255.35881941 513.07940606 247.40237336 513.0757055 239.44576979 513.06406647 C232.97322924 513.05499427 226.50073094 513.05382443 220.02818584 513.05816174 C218.64085753 513.05908113 218.64085753 513.05908113 217.22550237 513.06001911 C215.34600114 513.06129814 213.46649991 513.062595 211.5869987 513.06390947 C194.00615757 513.07528709 176.42540018 513.06224595 158.84457278 513.04070801 C143.79369504 513.0228396 128.74294075 513.0259445 113.69206524 513.04438305 C96.16963517 513.06583972 78.6472783 513.07418872 61.12483692 513.06193399 C59.25265409 513.06065994 57.38047124 513.05940245 55.50828838 513.05816174 C54.58738993 513.05754463 53.66649148 513.05692753 52.71768701 513.05629173 C46.26078448 513.05285319 39.80392878 513.05863472 33.3470335 513.06807995 C25.46695479 513.07935481 17.58703523 513.07614549 9.70697451 513.05495697 C5.69450255 513.04451979 1.68229493 513.04019765 -2.33017445 513.05355358 C-34.18680839 513.15051136 -62.45951666 508.7207226 -86.23176289 485.52289867 C-87.50020039 484.31633617 -87.50020039 484.31633617 -88.79426289 483.08539867 C-89.59863789 482.23977367 -90.40301289 481.39414867 -91.23176289 480.52289867 C-91.89691914 479.85258617 -92.56207539 479.18227367 -93.24738789 478.49164867 C-115.8000505 454.86504974 -118.85804797 425.35110592 -118.75466156 394.29113579 C-118.74551548 390.2174238 -118.75962757 386.1437773 -118.77058125 382.07007885 C-118.78827027 374.11348097 -118.78456971 366.15703492 -118.77293068 358.20043135 C-118.76385848 351.7278908 -118.76268864 345.2553925 -118.76702595 338.7828474 C-118.76763888 337.85796186 -118.76825181 336.93307631 -118.76888332 335.98016393 C-118.77016235 334.1006627 -118.77145921 332.22116147 -118.77277368 330.34166026 C-118.78415131 312.76081913 -118.77111016 295.18006174 -118.74957222 277.59923434 C-118.73170381 262.5483566 -118.73480871 247.49760231 -118.75324726 232.4467268 C-118.77470394 214.92429673 -118.78305293 197.40193986 -118.77079821 179.87949848 C-118.76952415 178.00731565 -118.76826666 176.1351328 -118.76702595 174.26294994 C-118.76640885 173.34205149 -118.76579174 172.42115304 -118.76515594 171.47234857 C-118.7617174 165.01544604 -118.76749893 158.55859034 -118.77694416 152.10169506 C-118.78821902 144.22161635 -118.78500971 136.34169679 -118.76382118 128.46163607 C-118.753384 124.44916411 -118.74906186 120.43695649 -118.76241779 116.42448711 C-118.85937558 84.56785317 -114.42958681 56.2951449 -91.23176289 32.52289867 C-90.42738789 31.67727367 -89.62301289 30.83164867 -88.79426289 29.96039867 C-87.94863789 29.15602367 -87.10301289 28.35164867 -86.23176289 27.52289867 C-85.56145039 26.85774242 -84.89113789 26.19258617 -84.20051289 25.50727367 C-60.57391395 2.95461106 -31.05997013 -0.10338641 0 0 Z " fill="#FE9E9E" transform="translate(118.23176288604736,-0.5228986740112305)"/>
<path d="M0 0 C1.31521385 -0.0099852 1.31521385 -0.0099852 2.65699768 -0.02017212 C4.50495327 -0.0302368 6.35294476 -0.03499107 8.20092773 -0.03466797 C10.96597711 -0.03900303 13.72937664 -0.07528271 16.49414062 -0.11328125 C28.38825402 -0.18743491 39.08814974 1.27093763 50.56640625 4.3359375 C51.64792969 4.60043701 52.72945312 4.86493652 53.84375 5.13745117 C71.01799047 9.34223467 88.44918607 18.47845036 101.56640625 30.3359375 C102.43458984 31.09414795 102.43458984 31.09414795 103.3203125 31.86767578 C117.43870988 44.21414299 129.83647089 59.66471517 131.85351562 79.1027832 C131.96709915 81.97898714 131.98293669 84.83285391 131.94140625 87.7109375 C131.93197998 88.72389893 131.92255371 89.73686035 131.9128418 90.78051758 C131.76726342 97.99273702 131.08563474 104.52995731 128.56640625 111.3359375 C128.22609375 112.32335937 127.88578125 113.31078125 127.53515625 114.328125 C121.39040096 130.64494142 108.57506015 145.07184648 92.69628906 152.44384766 C80.8944084 157.38700125 68.40395777 160.80438384 55.56640625 159.3359375 C54.37015625 159.20058594 53.17390625 159.06523437 51.94140625 158.92578125 C38.28241347 156.77733551 26.51544387 150.59638622 15.99609375 141.70703125 C13.58897667 140.06800311 13.58897667 140.06800311 10.5234375 140.45703125 C0.04821823 143.57053764 -7.1326771 154.30999841 -12.43359375 163.3359375 C-15.57039452 169.47066361 -18.09703237 175.8603063 -20.43359375 182.3359375 C-20.77374512 183.25479736 -21.11389648 184.17365723 -21.46435547 185.12036133 C-24.09742054 192.5480997 -25.6004164 199.85301164 -26.68359375 207.6484375 C-26.85197754 208.83542236 -27.02036133 210.02240723 -27.19384766 211.24536133 C-28.99157319 224.55162664 -28.76805833 237.08677264 -26.72802734 250.35498047 C-26.44615229 252.2514433 -26.2140718 254.15510637 -25.984375 256.05859375 C-24.71007248 264.79795926 -22.02298781 272.59939831 -18.68359375 280.7734375 C-18.27753906 281.78019531 -17.87148437 282.78695313 -17.453125 283.82421875 C-14.262461 291.31880024 -10.20412407 297.56540718 -4.43359375 303.3359375 C6.09471943 304.68027856 13.35447136 302.78836061 21.828125 296.71484375 C30.46017267 289.70977888 36.37630607 280.00265258 42.06640625 270.5859375 C50.79987723 256.75455672 64.08724727 248.0479756 79.56640625 243.3359375 C80.40171875 243.03816406 81.23703125 242.74039063 82.09765625 242.43359375 C98.07556432 237.21189789 115.41298668 240.14609584 130.22900391 247.37915039 C147.11846665 256.11462952 160.86445316 270.9683338 166.9609375 289.23046875 C171.42348781 304.33090493 170.16694301 318.48508201 165.56640625 333.3359375 C165.31246094 334.191875 165.05851562 335.0478125 164.796875 335.9296875 C158.65029192 353.61246837 145.09497757 369.8451719 132.56640625 383.3359375 C131.6158955 384.38815725 130.66674348 385.44160552 129.71875 386.49609375 C118.19075501 399.26654833 106.12780359 409.20873856 91.56640625 418.3359375 C90.79731934 418.82271973 90.02823242 419.30950195 89.23583984 419.81103516 C53.05340153 442.49472881 8.23362045 450.58725495 -33.49609375 441.0234375 C-47.75902111 437.66003876 -60.68098123 432.62202584 -73.43359375 425.3359375 C-74.1807666 424.92617676 -74.92793945 424.51641602 -75.69775391 424.09423828 C-85.97672278 418.42652583 -94.34478732 411.36774811 -102.64306641 403.10742188 C-104.38745569 401.38158487 -106.16064552 399.6918573 -107.9453125 398.0078125 C-115.19190813 391.09618727 -121.13122254 383.87292674 -126.43359375 375.3359375 C-126.90152344 374.58892578 -127.36945313 373.84191406 -127.8515625 373.07226562 C-142.07405315 350.23950107 -153.22672824 326.64955044 -159.43359375 300.3359375 C-159.78146086 298.94080731 -160.13182587 297.54629815 -160.484375 296.15234375 C-161.47950806 292.21649643 -162.45765589 288.27659414 -163.43359375 284.3359375 C-163.76875 283.16675781 -164.10390625 281.99757813 -164.44921875 280.79296875 C-166.02002334 274.46319107 -166.47224666 267.940827 -167.05859375 261.4609375 C-167.12396332 260.7480658 -167.18933289 260.03519409 -167.25668335 259.30072021 C-169.69702139 232.02830904 -169.91942463 204.28510635 -163.90625 177.45605469 C-163.36911628 175.04672141 -162.8551806 172.63283659 -162.33984375 170.21875 C-150.53477545 115.70625662 -122.35992803 58.06138115 -74.07910156 26.81201172 C-71.52405399 25.21175554 -68.95390432 23.64096675 -66.37109375 22.0859375 C-65.56905518 21.60294189 -64.7670166 21.11994629 -63.94067383 20.62231445 C-53.40346377 14.4017314 -43.00360745 9.53388873 -31.24609375 6.0859375 C-30.13556641 5.74820313 -29.02503906 5.41046875 -27.88085938 5.0625 C-18.49613572 2.24319804 -9.83135501 0.02682233 0 0 Z " fill="#A09CF8" transform="translate(255.43359375,27.6640625)"/>
<path d="M0 0 C1.31521385 -0.0099852 1.31521385 -0.0099852 2.65699768 -0.02017212 C4.50495327 -0.0302368 6.35294476 -0.03499107 8.20092773 -0.03466797 C10.96597711 -0.03900303 13.72937664 -0.07528271 16.49414062 -0.11328125 C28.38825402 -0.18743491 39.08814974 1.27093763 50.56640625 4.3359375 C51.64792969 4.60043701 52.72945312 4.86493652 53.84375 5.13745117 C71.01799047 9.34223467 88.44918607 18.47845036 101.56640625 30.3359375 C102.43458984 31.09414795 102.43458984 31.09414795 103.3203125 31.86767578 C117.43870988 44.21414299 129.83647089 59.66471517 131.85351562 79.1027832 C131.96709915 81.97898714 131.98293669 84.83285391 131.94140625 87.7109375 C131.93197998 88.72389893 131.92255371 89.73686035 131.9128418 90.78051758 C131.76726342 97.99273702 131.08563474 104.52995731 128.56640625 111.3359375 C128.22609375 112.32335937 127.88578125 113.31078125 127.53515625 114.328125 C121.39040096 130.64494142 108.57506015 145.07184648 92.69628906 152.44384766 C80.8944084 157.38700125 68.40395777 160.80438384 55.56640625 159.3359375 C54.37015625 159.20058594 53.17390625 159.06523437 51.94140625 158.92578125 C38.28241347 156.77733551 26.51544387 150.59638622 15.99609375 141.70703125 C13.58897667 140.06800311 13.58897667 140.06800311 10.5234375 140.45703125 C0.04821823 143.57053764 -7.1326771 154.30999841 -12.43359375 163.3359375 C-15.57039452 169.47066361 -18.09703237 175.8603063 -20.43359375 182.3359375 C-20.77374512 183.25479736 -21.11389648 184.17365723 -21.46435547 185.12036133 C-24.09742054 192.5480997 -25.6004164 199.85301164 -26.68359375 207.6484375 C-26.85197754 208.83542236 -27.02036133 210.02240723 -27.19384766 211.24536133 C-28.99157319 224.55162664 -28.76805833 237.08677264 -26.72802734 250.35498047 C-26.44615229 252.2514433 -26.2140718 254.15510637 -25.984375 256.05859375 C-24.71007248 264.79795926 -22.02298781 272.59939831 -18.68359375 280.7734375 C-18.27753906 281.78019531 -17.87148437 282.78695313 -17.453125 283.82421875 C-14.262461 291.31880024 -10.20412407 297.56540718 -4.43359375 303.3359375 C6.09471943 304.68027856 13.35447136 302.78836061 21.828125 296.71484375 C30.46017267 289.70977888 36.37630607 280.00265258 42.06640625 270.5859375 C50.79987723 256.75455672 64.08724727 248.0479756 79.56640625 243.3359375 C80.40171875 243.03816406 81.23703125 242.74039063 82.09765625 242.43359375 C98.07556432 237.21189789 115.41298668 240.14609584 130.22900391 247.37915039 C147.11846665 256.11462952 160.86445316 270.9683338 166.9609375 289.23046875 C171.42348781 304.33090493 170.16694301 318.48508201 165.56640625 333.3359375 C165.31246094 334.191875 165.05851562 335.0478125 164.796875 335.9296875 C158.65029192 353.61246837 145.09497757 369.8451719 132.56640625 383.3359375 C131.6158955 384.38815725 130.66674348 385.44160552 129.71875 386.49609375 C118.19075501 399.26654833 106.12780359 409.20873856 91.56640625 418.3359375 C90.79731934 418.82271973 90.02823242 419.30950195 89.23583984 419.81103516 C53.05340153 442.49472881 8.23362045 450.58725495 -33.49609375 441.0234375 C-47.75902111 437.66003876 -60.68098123 432.62202584 -73.43359375 425.3359375 C-74.1807666 424.92617676 -74.92793945 424.51641602 -75.69775391 424.09423828 C-85.97672278 418.42652583 -94.34478732 411.36774811 -102.64306641 403.10742188 C-104.38745569 401.38158487 -106.16064552 399.6918573 -107.9453125 398.0078125 C-115.19190813 391.09618727 -121.13122254 383.87292674 -126.43359375 375.3359375 C-126.90152344 374.58892578 -127.36945313 373.84191406 -127.8515625 373.07226562 C-142.07405315 350.23950107 -153.22672824 326.64955044 -159.43359375 300.3359375 C-159.78146086 298.94080731 -160.13182587 297.54629815 -160.484375 296.15234375 C-161.47950806 292.21649643 -162.45765589 288.27659414 -163.43359375 284.3359375 C-163.76875 283.16675781 -164.10390625 281.99757813 -164.44921875 280.79296875 C-166.02002334 274.46319107 -166.47224666 267.940827 -167.05859375 261.4609375 C-167.12396332 260.7480658 -167.18933289 260.03519409 -167.25668335 259.30072021 C-169.69702139 232.02830904 -169.91942463 204.28510635 -163.90625 177.45605469 C-163.36911628 175.04672141 -162.8551806 172.63283659 -162.33984375 170.21875 C-150.53477545 115.70625662 -122.35992803 58.06138115 -74.07910156 26.81201172 C-71.52405399 25.21175554 -68.95390432 23.64096675 -66.37109375 22.0859375 C-65.56905518 21.60294189 -64.7670166 21.11994629 -63.94067383 20.62231445 C-53.40346377 14.4017314 -43.00360745 9.53388873 -31.24609375 6.0859375 C-30.13556641 5.74820313 -29.02503906 5.41046875 -27.88085938 5.0625 C-18.49613572 2.24319804 -9.83135501 0.02682233 0 0 Z M-30.43359375 16.3359375 C-31.82140015 16.76663604 -33.21065742 17.19269725 -34.6015625 17.61328125 C-74.98146849 30.50165535 -106.48853783 65.67775735 -126.07421875 101.8359375 C-127.32770447 104.1411986 -128.60955277 106.42756642 -129.90234375 108.7109375 C-138.72910282 124.51811757 -144.65211595 141.31842973 -148.84814453 158.89404297 C-149.46179167 161.45355034 -150.10060989 164.00595394 -150.7421875 166.55859375 C-151.18211499 168.33826385 -151.62094259 170.11820625 -152.05859375 171.8984375 C-152.25283936 172.67574219 -152.44708496 173.45304688 -152.6472168 174.25390625 C-153.29149243 176.93925366 -153.86950226 179.63255566 -154.43359375 182.3359375 C-154.69760986 183.54878418 -154.96162598 184.76163086 -155.23364258 186.01123047 C-157.81599436 198.82810682 -157.92513015 211.58062343 -157.87963867 224.61865234 C-157.87117099 228.30233528 -157.89992421 231.98443942 -157.93164062 235.66796875 C-157.99727942 258.15597176 -155.31977758 279.89218411 -148.43359375 301.3359375 C-148.04751953 302.56328613 -147.66144531 303.79063477 -147.26367188 305.05517578 C-140.01971611 328.39200234 -140.01971611 328.39200234 -129.43359375 350.3359375 C-128.64507404 351.74436684 -127.8573533 353.1532437 -127.0703125 354.5625 C-118.76106414 369.23950731 -109.33775685 382.36691197 -97.43359375 394.3359375 C-96.94632813 394.82723145 -96.4590625 395.31852539 -95.95703125 395.82470703 C-88.53353064 403.20602866 -80.48817027 409.08037899 -71.43359375 414.3359375 C-70.69028809 414.77969727 -69.94698242 415.22345703 -69.18115234 415.68066406 C-54.95410848 424.08504556 -40.52743908 428.76519052 -24.43359375 432.3359375 C-23.68440674 432.52236816 -22.93521973 432.70879883 -22.16333008 432.90087891 C-18.21602145 433.52999115 -14.31187037 433.51893239 -10.3203125 433.5390625 C-9.43310013 433.54476257 -8.54588776 433.55046265 -7.63179016 433.55633545 C-5.75152774 433.56576822 -3.87124892 433.57231258 -1.9909668 433.57617188 C0.8312037 433.58577518 3.65261278 433.61677137 6.47460938 433.6484375 C21.9723159 433.74163456 35.83061995 431.71100821 50.56640625 426.6484375 C51.59403076 426.29813477 52.62165527 425.94783203 53.68041992 425.58691406 C91.96519425 412.18649325 123.78653859 384.19461429 145.37304688 350.21044922 C146.14155794 349.0032831 146.918304 347.8013004 147.70507812 346.60595703 C155.63720098 334.49921872 161.45084022 319.02152637 159.56640625 304.3359375 C159.44394531 303.27632813 159.32148438 302.21671875 159.1953125 301.125 C156.96815608 287.45486747 149.26890435 273.26221228 138.56640625 264.3359375 C126.54376869 255.85283387 115.21137258 250.73936748 100.31640625 250.8984375 C98.80578613 250.91088501 98.80578613 250.91088501 97.26464844 250.92358398 C84.30466683 251.21585965 74.01197741 254.43845264 63.56640625 262.3359375 C62.73625 262.94824219 61.90609375 263.56054688 61.05078125 264.19140625 C54.10206274 269.83997146 49.82869506 276.7355322 45.15625 284.23828125 C36.53464668 298.04481664 25.279973 309.97918385 8.94921875 313.9765625 C2.03055028 315.02003381 -4.19866518 314.74180157 -10.43359375 311.3359375 C-13.05859375 309.1484375 -13.05859375 309.1484375 -15.43359375 306.3359375 C-16.10455078 305.59150391 -16.10455078 305.59150391 -16.7890625 304.83203125 C-35.949645 281.87015357 -40.77933758 244.5056421 -38.19921875 215.72119141 C-35.64252607 192.65629118 -29.30322474 167.91879827 -14.99609375 149.1484375 C-14.25488281 148.16488281 -13.51367188 147.18132812 -12.75 146.16796875 C-5.89666908 137.78910717 2.10289612 130.8849679 12.87890625 128.6484375 C17.74988786 129.55658661 20.12395354 131.9325929 23.8359375 135.10546875 C37.45615517 146.23156931 51.76341103 149.72441681 68.98486328 148.61083984 C86.57721145 146.73747271 100.64987196 136.82495866 111.56640625 123.3359375 C114.57633629 118.94840361 116.65021851 114.29791748 118.56640625 109.3359375 C119.10007812 108.03849609 119.10007812 108.03849609 119.64453125 106.71484375 C124.93540918 91.29914942 121.95987924 74.88872406 115.2734375 60.56640625 C102.99207956 38.60483588 77.86133251 22.91456322 54.31640625 15.5234375 C52.73895824 15.10476551 51.15491907 14.71044448 49.56640625 14.3359375 C48.48359375 14.07167969 47.40078125 13.80742188 46.28515625 13.53515625 C38.30528288 11.63903769 30.6976352 10.18484254 22.4765625 10.02734375 C21.31695763 10.0044503 21.31695763 10.0044503 20.13392639 9.98109436 C2.35692943 9.69550716 -13.50031 10.34493239 -30.43359375 16.3359375 Z " fill="#070608" transform="translate(255.43359375,27.6640625)"/>
<path d="M0 0 C0.81093109 -0.00449158 1.62186218 -0.00898315 2.45736694 -0.01361084 C13.25491359 -0.03790351 23.17731859 0.98630681 33.6875 3.5 C35.49958237 3.89774084 37.31202032 4.2938695 39.125 4.6875 C40.300625 4.955625 41.47625 5.22375 42.6875 5.5 C42.6875 6.16 42.6875 6.82 42.6875 7.5 C43.656875 7.768125 44.62625 8.03625 45.625 8.3125 C47.1409375 8.9003125 47.1409375 8.9003125 48.6875 9.5 C49.0175 10.49 49.3475 11.48 49.6875 12.5 C48.79369629 12.58975098 47.89989258 12.67950195 46.97900391 12.77197266 C-5.16187035 18.13087731 -55.28766878 31.67463591 -94.3125 68.5 C-95.12332031 69.23476562 -95.93414062 69.96953125 -96.76953125 70.7265625 C-128.52379484 100.63057766 -139.91381829 149.77659373 -141.39324951 191.79333496 C-141.96773461 212.72003747 -141.80887728 233.69537006 -139.3125 254.5 C-139.168125 255.79292969 -139.02375 257.08585937 -138.875 258.41796875 C-135.96511951 281.41122083 -129.54632136 304.69159631 -119.3125 325.5 C-119.00731445 326.1280957 -118.70212891 326.75619141 -118.38769531 327.40332031 C-103.63795294 357.40720039 -79.45555847 381.0341007 -47.8671875 392.78125 C-44.69966511 393.7887511 -41.53312122 394.67890103 -38.3125 395.5 C-37.2090625 395.78617187 -36.105625 396.07234375 -34.96875 396.3671875 C-22.62604794 399.39518684 -10.46479546 399.77352218 2.1875 399.8125 C3.40921402 399.81642761 3.40921402 399.81642761 4.65560913 399.82043457 C24.88007897 399.82736508 44.20328594 396.96200583 63.6875 391.5 C65.09708984 391.13261719 65.09708984 391.13261719 66.53515625 390.7578125 C72.76886396 389.12364465 78.90529451 387.20922435 85.03125 385.21313477 C88.89853314 383.97373227 92.66526847 383.06124161 96.6875 382.5 C71.02605514 408.79956249 32.47242992 423.52185903 -3.88012695 424.03369141 C-41.85089568 424.31388667 -76.11950672 415.20654372 -104.3125 388.5 C-105.62068297 387.39072204 -106.93301718 386.28631597 -108.25 385.1875 C-119.11041313 375.61376232 -126.88067963 364.80800454 -134.3125 352.5 C-135.06563477 351.27482666 -135.06563477 351.27482666 -135.83398438 350.02490234 C-143.60878342 337.31647141 -149.49407246 324.58123757 -154.3125 310.5 C-154.62558105 309.60716309 -154.93866211 308.71432617 -155.26123047 307.79443359 C-165.07388571 279.80349537 -170.04249518 252.2407543 -169.83398438 222.50390625 C-169.81246517 218.86911697 -169.83397779 215.23629426 -169.859375 211.6015625 C-169.88593433 190.69583675 -166.88222136 170.85496032 -161.5 150.6875 C-161.32886688 150.03777222 -161.15773376 149.38804443 -160.98141479 148.71862793 C-158.07511932 137.71406209 -154.7876952 126.97290389 -150.3125 116.5 C-149.99764648 115.76023926 -149.68279297 115.02047852 -149.35839844 114.25830078 C-139.09112086 90.58286909 -125.73767832 68.78483887 -107.87109375 50.13037109 C-106.78160878 48.99071248 -105.69879245 47.84465814 -104.62109375 46.69384766 C-95.66298409 37.15247646 -86.43868691 29.38355567 -75.3125 22.5 C-74.18255615 21.7881958 -74.18255615 21.7881958 -73.02978516 21.06201172 C-62.91299788 14.73508502 -52.92452457 9.5175224 -41.45507812 6.1484375 C-39.32461787 5.50366739 -37.23900026 4.77300126 -35.140625 4.03125 C-23.5611665 0.25684363 -12.06426866 0.0206453 0 0 Z " fill="#6C5BE5" transform="translate(267.3125,37.5)"/>
<path d="M0 0 C0.33 0 0.66 0 1 0 C1.08636719 1.05574219 1.17273438 2.11148437 1.26171875 3.19921875 C3.34817784 26.10570872 8.77248442 56.2031723 26 73 C32.43748693 77.49602262 38.298257 78.66394336 46 78 C63.60539957 74.49547689 75.11463788 62.13916777 85 48 C86.06486677 46.26401952 87.10926722 44.51517885 88.125 42.75 C93.37048362 33.70959946 100.21122494 27.53420419 109 22 C109.80308594 21.48566406 110.60617187 20.97132813 111.43359375 20.44140625 C124.16613136 13.29025499 140.53103278 13.2928574 154.6171875 15.58984375 C172.29044132 20.7864509 184.42789266 32.38027073 193.03564453 48.1328125 C195.1492346 52.22515095 197.04120481 56.48228708 198 61 C197.67 61.99 197.34 62.98 197 64 C196.18660156 63.39414062 195.37320313 62.78828125 194.53515625 62.1640625 C177.5839449 49.70406908 159.96664851 37.08754693 138 39 C128.13515834 41.89494556 121.36585065 51.30665198 116.34204102 59.80444336 C114.71611941 62.8120859 113.12829512 65.83562836 111.5625 68.875 C106.30279047 79.08234729 100.63117419 89.23194323 92 97 C91.44054687 97.55171875 90.88109375 98.1034375 90.3046875 98.671875 C79.68454897 108.73305887 66.85198634 111.49796933 52.59375 111.25 C38.60736195 110.27703387 27.56076897 105.2611916 18 95 C12.6130458 87.96883488 9.03815279 80.27817242 6 72 C5.64035156 71.07445312 5.28070313 70.14890625 4.91015625 69.1953125 C-0.87047234 52.74778812 -1.27428278 34.94697047 -1.25 17.6875 C-1.24931519 16.97628998 -1.24863037 16.26507996 -1.2479248 15.53231812 C-1.21001232 3.63003695 -1.21001232 3.63003695 0 0 Z " fill="#6C5BE5" transform="translate(216,264)"/>
<path d="M0 0 C13.3877758 4.65248946 21.08028173 18.65878335 26.9375 30.75 C33.61570508 46.54740926 32.03935297 64.07215168 25.80078125 79.78125 C23.18920927 85.87174607 19.97927282 91.38782677 16.375 96.9375 C15.76325928 97.88826416 15.15151855 98.83902832 14.52124023 99.81860352 C8.1355635 109.58029043 1.00813663 118.30999029 -7.40234375 126.40234375 C-9.14771294 128.14771294 -10.72128426 129.98843099 -12.3125 131.875 C-28.23916003 150.19770623 -52.10653964 165.24576343 -75 173 C-75.94987793 173.32556885 -75.94987793 173.32556885 -76.91894531 173.65771484 C-84.47521588 176.22218757 -92.11978338 178.37471361 -99.875 180.25 C-100.53999512 180.41322754 -101.20499023 180.57645508 -101.89013672 180.74462891 C-123.02121398 185.6451183 -145.78773399 184.54961215 -166.6875 179.3125 C-167.37151886 179.14259552 -168.05553772 178.97269104 -168.76028442 178.79763794 C-180.40290519 175.84988336 -191.42327179 171.87180201 -201.75 165.6875 C-202.36359375 165.32849609 -202.9771875 164.96949219 -203.609375 164.59960938 C-205.07685434 163.7397582 -206.53907294 162.87093729 -208 162 C-205.04878848 160.52439424 -203.30127197 161.56587337 -200.1484375 162.43359375 C-174.9192795 169.00403178 -149.69321016 171.07089452 -124 165 C-123.26749023 164.82839355 -122.53498047 164.65678711 -121.78027344 164.47998047 C-103.77316034 160.12040462 -86.72812167 153.84268769 -71 144 C-70.26894043 143.54463867 -69.53788086 143.08927734 -68.78466797 142.62011719 C-53.02052841 132.69816035 -38.95238853 121.24653662 -26.8046875 107.07421875 C-25.60782508 105.69860415 -24.38365022 104.34625661 -23.1328125 103.01953125 C-17.34284234 96.82263548 -12.76609457 90.01130748 -8.20947266 82.89013672 C-7.4302714 81.67241848 -6.64643597 80.45764698 -5.85693359 79.24658203 C5.43252255 61.92735841 12.23166767 42.62215044 8.2734375 21.78125 C6.57723274 14.0212263 4.03427881 6.8781147 0 0 Z " fill="#6D5CE5" transform="translate(415,303)"/>
<path d="M0 0 C2.25390625 1.41796875 2.25390625 1.41796875 4.5625 3.1875 C10.045674 7.19029973 15.86716637 10.12325845 22 13 C21.443125 13.268125 20.88625 13.53625 20.3125 13.8125 C1.58291581 23.43039458 -6.96227165 41.07191609 -14 60 C-14.38478516 61.00667725 -14.38478516 61.00667725 -14.77734375 62.03369141 C-25.8353386 91.46439528 -25.57617207 130.10166447 -12.76953125 158.9765625 C-12 161 -12 161 -12 164 C-14.88491665 164.61381205 -16.21106883 164.76528682 -19 164 C-29.08906033 157.0237169 -32.75161172 143.90408265 -37 133 C-37.34675781 132.1742749 -37.69351563 131.3485498 -38.05078125 130.49780273 C-38.96650855 128.08813042 -39.54888995 125.83244058 -40.03515625 123.3046875 C-40.2043457 122.4295752 -40.37353516 121.55446289 -40.54785156 120.65283203 C-40.80260254 119.27780518 -40.80260254 119.27780518 -41.0625 117.875 C-41.2387793 116.92866699 -41.41505859 115.98233398 -41.59667969 115.00732422 C-42.75021653 108.67595516 -43.75826401 102.43984672 -44 96 C-44.06316406 94.99710937 -44.12632812 93.99421875 -44.19140625 92.9609375 C-44.89521365 72.84566795 -40.87554457 52.46358893 -33 34 C-32.72285156 33.34225586 -32.44570312 32.68451172 -32.16015625 32.00683594 C-27.54547369 21.3257226 -14.4163947 -4.12804253 0 0 Z " fill="#6C5BE4" transform="translate(270,168)"/>
<path d="M0 0 C14.67688016 12.00835649 27.79794477 25.48747595 31 45 C32.71542478 64.50912776 29.67379684 82.45130785 16.85546875 97.90234375 C6.60134718 109.6682817 -3.84179243 116.0152136 -19 120 C-19.71800781 120.22558594 -20.43601562 120.45117188 -21.17578125 120.68359375 C-36.73922707 125.35584974 -52.21692421 120.28368198 -66.02197266 113.13037109 C-69.19622831 111.31639878 -72.07524976 109.19069528 -75 107 C-73 106 -73 106 -70.25 106.4375 C-53.33680685 108.92270389 -34.05323374 105.11832829 -20 95 C-16.46053577 92.18548628 -13.20178503 89.19111241 -10 86 C-9.2884375 85.31164062 -8.576875 84.62328125 -7.84375 83.9140625 C6.26201385 69.32002221 9.60393806 50.38640084 9.3515625 30.875 C8.94556696 20.25770482 4.92438566 11.30161736 0 2 C0 1.34 0 0.68 0 0 Z " fill="#6E5CE5" transform="translate(377,79)"/>
<path d="M0 0 C0.33 0 0.66 0 1 0 C1.41923663 11.6803982 1.60688122 22.03123518 -3 33 C-3.35449219 33.96679688 -3.70898438 34.93359375 -4.07421875 35.9296875 C-9.68453741 49.27410475 -21.61820192 60.08229204 -34.76171875 65.76953125 C-35.83035156 66.17558594 -36.89898437 66.58164063 -38 67 C-38.85207031 67.35449219 -39.70414062 67.70898438 -40.58203125 68.07421875 C-51.90627684 72.01541288 -67.97015802 71.94626755 -79.08203125 67.47265625 C-96.46293171 58.7007694 -96.46293171 58.7007694 -100 53 C-99.11183594 53.144375 -98.22367187 53.28875 -97.30859375 53.4375 C-88.91333836 54.65739584 -80.67387853 55.21683119 -72.1875 55.25 C-71.24640381 55.25902344 -70.30530762 55.26804688 -69.33569336 55.27734375 C-59.78390032 55.23726279 -50.79928399 53.89533308 -42.0625 49.9375 C-41.04518799 49.47960083 -41.04518799 49.47960083 -40.00732422 49.01245117 C-18.9272419 39.117668 -7.88867518 20.98051909 0 0 Z " fill="#6B5BE3" transform="translate(376,106)"/>
<path d="M0 0 C5.57894737 3.15789474 5.57894737 3.15789474 7 6 C7.5811138 13.08958838 7.5811138 13.08958838 5.125 16.9375 C1.89661432 20.07093316 -0.44929709 20.39218693 -4.9609375 20.359375 C-8.38006698 19.7567698 -9.93189052 17.63213933 -12 15 C-13.45147903 12.09704195 -13.37239025 10.22738221 -13 7 C-9.58798533 1.48730466 -6.4900561 -0.62404386 0 0 Z " fill="#F0F0E5" transform="translate(159,277)"/>
<path d="M0 0 C3.49406769 1.66762322 4.82670681 2.74006022 7 6 C7.67226891 12.94677871 7.67226891 12.94677871 5.125 16.9375 C1.89571704 20.07180405 -0.4493388 20.38788997 -4.9609375 20.36328125 C-8.349039 19.75965397 -9.91986899 17.5844052 -12 15 C-12.33 14.67 -12.66 14.34 -13 14 C-13.38301738 10.74435228 -13.67642942 8.13831966 -11.953125 5.23828125 C-8.14164467 0.60845367 -5.92879236 -0.46500332 0 0 Z " fill="#F0F0E5" transform="translate(181,125)"/>
<path d="M0 0 C3.02519989 2.05971056 4.66926776 3.51573824 5.48046875 7.15625 C5.73681175 11.31316358 5.31925337 13.49537371 3.0625 17.0625 C-1.04811899 19.66309569 -4.2594664 20.05631455 -9 19 C-12.66304688 16.48165527 -13.75360451 14.79716189 -15.0625 10.5625 C-14.98454913 6.11930066 -13.87270176 4.33854529 -11 1 C-7.44985064 -1.8156357 -4.22365209 -1.11148739 0 0 Z " fill="#F0EFE5" transform="translate(181,351)"/>
<path d="M0 0 C3.40045757 0.06104951 4.2238868 0.3572208 7.1875 2.375 C9.94292627 6.38289275 10.25 8.50635738 10.25 13.375 C9.04014576 16.3041208 8.01935187 17.79798609 5.5 19.6875 C2.2289382 20.68699111 -0.34742588 20.7331657 -3.75 20.375 C-7.13939556 18.23820715 -8.47582557 17.1975233 -9.75 13.375 C-10.125 10 -10.125 10 -9.75 6.375 C-7.3125 3.5 -7.3125 3.5 -4.75 1.375 C-3.75 0.375 -3.75 0.375 0 0 Z " fill="#F0F0E5" transform="translate(157.75,208.625)"/>
<path d="M0 0 C2.16015625 0.47265625 2.16015625 0.47265625 5.22265625 2.41015625 C7.82325194 6.52077524 8.2164708 9.73212265 7.16015625 14.47265625 C4.64181152 18.13570313 2.95731814 19.22626076 -1.27734375 20.53515625 C-5.72054309 20.45720538 -7.50129846 19.34535801 -10.83984375 16.47265625 C-12.94841828 13.8140188 -12.84007989 12.48564418 -12.77734375 9.03515625 C-10.91516333 1.95887064 -7.04575111 -0.45873839 0 0 Z " fill="#F0EFE5" transform="translate(251.83984375,75.52734375)"/>
<path d="M0 0 C2.85746217 1.26998319 4.48137263 2.2838003 6.3125 4.8125 C7.25846855 7.82239992 7.44072275 9.85198036 7 13 C4.98934744 16.33014331 3.73731173 18.36952397 0.0625 19.703125 C-3.45585519 20.31617174 -5.53966596 20.19013797 -8.875 18.8125 C-12.30893933 15.88355175 -12.88501329 14.05404486 -13.375 9.5625 C-12.93878362 5.41844436 -11.90869728 3.90869728 -9 1 C-5.93570224 -0.53214888 -3.3834358 -0.22938548 0 0 Z " fill="#F0F0E5" transform="translate(330,381)"/>
<path d="M0 0 C3.02519989 2.05971056 4.66926776 3.51573824 5.48046875 7.15625 C5.73681175 11.31316358 5.31925337 13.49537371 3.0625 17.0625 C-1.05858493 19.669717 -4.24941677 20.03945854 -9 19 C-12.0625 17.0625 -12.0625 17.0625 -14 14 C-14.69022545 10.84549858 -14.73034598 8.14961704 -14 5 C-9.58491896 -0.57694447 -6.89565639 -1.63625745 0 0 Z " fill="#F0F0E5" transform="translate(246,394)"/>
<path d="M0 0 C3.06818718 1.53409359 4.52410348 2.57528481 5.625 5.87109375 C6.27370292 9.44571716 6.21706992 11.50073918 4.75 14.875 C3 17 3 17 0 19 C-6.94677871 19.67226891 -6.94677871 19.67226891 -10.9375 17.125 C-13.77493852 14.20157849 -13.96451772 13.36073651 -14.375 9.1875 C-14.30791111 5.83915436 -13.97938747 4.96808382 -12.0625 2 C-7.93728703 -0.69401663 -4.79582759 -0.91224981 0 0 Z " fill="#F1F1E5" transform="translate(384,326)"/>
<path d="M0 0 C2.81688642 1.64890912 3.63560511 2.7708088 4.5546875 5.87109375 C5.21824056 9.45292608 5.22349146 11.48596965 3.75 14.875 C2 17 2 17 -1 19 C-5.46817575 19.43240411 -7.9079999 19.53438303 -11.9375 17.5625 C-14.45505797 14.43462494 -15.04270028 12.23117204 -15.24609375 8.26171875 C-14.92350704 5.29699325 -13.90692028 3.16298281 -11.796875 1.03515625 C-8.07181046 -1.11080484 -4.10861581 -0.79118615 0 0 Z " fill="#F1F1E5" transform="translate(320,101)"/>
<path d="M0 0 C2.61314024 1.93145148 3.04048825 3.15616895 3.875 6.375 C4.01611125 10.46722617 3.53476416 11.85339621 1 15 C-1.51049841 17.60015907 -2.79742587 17.97421784 -6.4375 18.4375 C-10.51413456 17.93686067 -12.09307311 16.8188382 -15 14 C-14.67 13.34 -14.34 12.68 -14 12 C-12.783125 12.103125 -11.56625 12.20625 -10.3125 12.3125 C-6.82739708 12.30014148 -6.07674043 12.05388158 -3.0625 9.9375 C-0.67129009 6.5318374 -0.2420194 4.11432986 0 0 Z " fill="#7363E8" transform="translate(166,284)"/>
<path d="M0 0 C2.0625 1.5 2.0625 1.5 4 4 C4 8.32563683 3.75015712 10.78099468 1.5 14.4375 C-2.16995861 16.73122413 -5.68299562 17.49161616 -10 17 C-13.0625 14.5625 -13.0625 14.5625 -15 12 C-14.40832031 11.98582031 -13.81664062 11.97164062 -13.20703125 11.95703125 C-8.91665336 11.6980688 -6.54900556 11.40031656 -3 8.8125 C-0.82242734 5.75028844 -0.25917923 3.71490235 0 0 Z " fill="#7262E7" transform="translate(188,133)"/>
<path d="M0 0 C2.82295068 2.41752691 2.98618369 2.89292361 3.5 6.875 C3.38259685 10.41666176 3.0093902 10.9883858 0.625 13.9375 C-3.45267175 17.14138495 -5.78779014 17.4417127 -11 17 C-13.9375 15 -13.9375 15 -16 13 C-15.67 12.34 -15.34 11.68 -15 11 C-14.07767578 11.01740234 -14.07767578 11.01740234 -13.13671875 11.03515625 C-11.92435547 11.04869141 -11.92435547 11.04869141 -10.6875 11.0625 C-9.88699219 11.07410156 -9.08648437 11.08570313 -8.26171875 11.09765625 C-5.83138666 11.09657855 -5.83138666 11.09657855 -3 10 C-1.97299556 7.67108904 -1.97299556 7.67108904 -1.3125 4.9375 C-1.06113281 4.01839844 -0.80976563 3.09929687 -0.55078125 2.15234375 C-0.36902344 1.44207031 -0.18726563 0.73179687 0 0 Z " fill="#7262E7" transform="translate(252,401)"/>
<path d="M0 0 C3 2 3 2 3.46875 3.98828125 C3.52606068 8.25076319 3.41439172 10.3972484 0.9375 14 C-2.61794591 16.42072913 -4.69626051 17.0755042 -9 17 C-14.46835443 14.06329114 -14.46835443 14.06329114 -16 11 C-14.783125 11.061875 -13.56625 11.12375 -12.3125 11.1875 C-8.40258304 11.1875 -6.12730688 10.48344958 -3 8 C-1.0549 5.08235 -0.54723683 3.37462715 0 0 Z " fill="#7263E7" transform="translate(337,389)"/>
<path d="M0 0 C1.5 1 1.5 1 3 3 C3.5375463 7.7611244 3.71502323 9.87979695 1.125 13.9375 C-2.17309704 17.13859419 -4.43797006 17.27658578 -9.0234375 17.2265625 C-11.73231128 16.91605918 -13.16537084 15.98751492 -15 14 C-15 13.34 -15 12.68 -15 12 C-14.39671875 11.96261719 -13.7934375 11.92523438 -13.171875 11.88671875 C-9.73783222 11.60424104 -6.73706856 11.3212863 -3.5625 9.9375 C-1.12369576 6.91338274 -0.74553714 3.78981378 0 0 Z " fill="#7363E7" transform="translate(390,333)"/>
<path d="M0 0 C2.82295068 2.41752691 2.98618369 2.89292361 3.5 6.875 C3.38259685 10.41666176 3.0093902 10.9883858 0.625 13.9375 C-3.15401664 16.90672736 -5.17380821 17.55686828 -10 17 C-12.27751344 15.52631484 -14.02007 13.88564762 -16 12 C-14 11 -14 11 -10.625 11.0625 C-7.11425209 11.00196986 -5.8102266 10.91818371 -3 9 C-1.8774351 6.83718718 -1.8774351 6.83718718 -1.25 4.375 C-1.00765625 3.55773437 -0.7653125 2.74046875 -0.515625 1.8984375 C-0.34546875 1.27195313 -0.1753125 0.64546875 0 0 Z " fill="#7262E7" transform="translate(168,217)"/>
<path d="M0 0 C1.50390625 1.25390625 1.50390625 1.25390625 3 3 C2.92826264 7.51945376 2.88028475 9.89254499 0.0625 13.4375 C-3.70410338 16.29098741 -6.2752687 16.40040096 -11 16 C-13.9375 14 -13.9375 14 -16 12 C-15.67 11.34 -15.34 10.68 -15 10 C-14.07767578 10.01740234 -14.07767578 10.01740234 -13.13671875 10.03515625 C-11.92435547 10.04869141 -11.92435547 10.04869141 -10.6875 10.0625 C-9.88699219 10.07410156 -9.08648437 10.08570313 -8.26171875 10.09765625 C-5.83138666 10.09657855 -5.83138666 10.09657855 -3 9 C-1.97718482 6.90280128 -1.97718482 6.90280128 -1.3125 4.4375 C-1.06113281 3.61121094 -0.80976563 2.78492188 -0.55078125 1.93359375 C-0.36902344 1.29550781 -0.18726563 0.65742188 0 0 Z " fill="#7262E7" transform="translate(187,359)"/>
<path d="M0 0 C1.94264002 1.62663725 2.90087681 2.5896761 3.50390625 5.0859375 C3.62113925 9.66584018 3.48520798 11.42011729 0.4375 15.0625 C-3.55729852 17.31411371 -5.49383635 17.81930248 -10 17 C-12.9375 14.5 -12.9375 14.5 -15 12 C-14.39671875 11.96261719 -13.7934375 11.92523438 -13.171875 11.88671875 C-9.73783222 11.60424104 -6.73706856 11.3212863 -3.5625 9.9375 C-1.12369576 6.91338274 -0.74553714 3.78981378 0 0 Z " fill="#7363E7" transform="translate(325,108)"/>
<path d="M0 0 C2.953125 2.640625 2.953125 2.640625 3.375 5.875 C2.95466405 9.37779955 2.10485728 11.19352363 0 14 C-3.20058729 16.13372486 -5.18258832 16.46560278 -8.9921875 16.40234375 C-12.33186859 15.73310805 -13.94677157 13.56653554 -16 11 C-14.783125 11.04125 -13.56625 11.0825 -12.3125 11.125 C-7.36508034 11.11932122 -7.36508034 11.11932122 -3 9 C-1.67498915 6.07749624 -0.78626261 3.10669616 0 0 Z " fill="#7161E7" transform="translate(260,84)"/>
</svg>
