<?xml version="1.0" encoding="utf-8"?>
<!-- Generator: Adobe Illustrator 22.0.1, SVG Export Plug-In . SVG Version: 6.00 Build 0)  -->
<svg version="1.1" id="Layer_1" xmlns="http://www.w3.org/2000/svg" xmlns:xlink="http://www.w3.org/1999/xlink" x="0px" y="0px"
	 viewBox="0 0 256 256" style="enable-background:new 0 0 256 256;" xml:space="preserve">
<style type="text/css">
	.st0{fill:#3A312A;}
	.st1{fill:#D6DF58;}
	.st2{fill:#87796F;}
	.st3{fill:#B9C239;}
	.st4{fill:#EF6D7A;}
	.st5{fill:#FCE8CB;}
	.st6{fill:#D5DE58;}
	.st7{fill:#D34E5C;}
	.st8{fill:#695B51;}
	.st9{fill:#8AC6DD;}
	.st10{fill:#D7E057;}
	.st11{fill:#B8C136;}
	.st12{fill:#F16C7A;}
	.st13{fill:#8AC2D9;}
	.st14{fill:#F7E3C7;}
	.st15{fill:#8AC3DA;}
	.st16{fill:#6DA3BC;}
	.st17{fill:#6A5C52;}
	.st18{fill:#D5DC57;}
	.st19{fill:#F6E2C6;}
	.st20{fill:#DBC7AA;}
	.st21{fill:#CE4E61;}
	.st22{fill:#FAE6CA;}
	.st23{fill:#8AC5DC;}
	.st24{fill:#DDC9AC;}
	.st25{fill:#DECAAD;}
	.st26{fill:#6CA6BE;}
	.st27{fill:#F8E4C8;}
	.st28{fill:#89C4DB;}
	.st29{fill:#ED6E7A;}
	.st30{fill:#D24E5C;}
	.st31{fill:#6DA4BD;}
	.st32{fill:#EB6E7A;}
	.st33{fill:#68A7BB;}
	.st34{fill:#B9BC37;}
	.st35{fill:#CC4E61;}
	.st36{fill:#6CA8BF;}
	.st37{fill-rule:evenodd;clip-rule:evenodd;fill:#D5DE58;}
	.st38{fill:#EA6D7A;}
	.st39{fill:#F4E0C4;}
	.st40{fill-rule:evenodd;clip-rule:evenodd;fill:#D6DF58;}
	.st41{fill-rule:evenodd;clip-rule:evenodd;fill:#F16C7A;}
	.st42{fill:#F3DEC3;}
	.st43{fill-rule:evenodd;clip-rule:evenodd;fill:#FAE6CA;}
	.st44{fill:#F59689;}
	.st45{fill-rule:evenodd;clip-rule:evenodd;fill:#F8E4C8;}
	.st46{fill-rule:evenodd;clip-rule:evenodd;fill:#FCE8CB;}
	.st47{fill:#F5978A;}
	.st48{fill:#D4DB56;}
	.st49{fill-rule:evenodd;clip-rule:evenodd;fill:#D4DA55;}
	.st50{fill-rule:evenodd;clip-rule:evenodd;fill:#EB6E7A;}
	.st51{fill:#68A6B9;}
	.st52{fill-rule:evenodd;clip-rule:evenodd;fill:#D5DC57;}
	.st53{fill:#8AC1D8;}
	.st54{fill:#F5E1C5;}
	.st55{fill:#D4D752;}
	.st56{fill:#D3D751;}
	.st57{fill:#D4D853;}
	.st58{fill:#E96C7A;}
	.st59{fill:#D4DA55;}
	.st60{fill:#8BC0D7;}
	.st61{fill:#87796F;stroke:#3A312A;stroke-width:3;stroke-linecap:round;stroke-linejoin:round;stroke-miterlimit:10;}
</style>
<g>
	<g>
		<g>
			<path class="st18" d="M204.946,54.33c-0.974,11.564-13.025,13.389-13.025,13.389c10.347,0.487,12.925,14.059,12.925,14.059
				c0.221-9.677,13.321-14.202,13.321-14.202C208.354,66.989,204.946,54.33,204.946,54.33z"/>
		</g>
	</g>
	<g>
		<g>
			<path class="st0" d="M218.258,66.079c-8.604-0.516-11.832-12.025-11.863-12.142c-0.19-0.702-0.846-1.162-1.584-1.102
				c-0.725,0.066-1.298,0.642-1.359,1.367c-0.859,10.216-11.313,11.964-11.754,12.032c-0.763,0.116-1.313,0.791-1.273,1.561
				c0.04,0.771,0.657,1.385,1.428,1.421c9.027,0.426,11.498,12.719,11.521,12.843c0.138,0.712,0.76,1.218,1.473,1.218
				c0.042,0,0.084-0.002,0.126-0.005c0.764-0.064,1.357-0.693,1.375-1.46c0.194-8.509,12.191-12.777,12.313-12.819
				c0.676-0.234,1.092-0.914,0.994-1.622S218.972,66.122,218.258,66.079z M204.691,76.425c-1.356-3.131-3.708-6.908-7.586-8.877
				c2.931-1.404,6.408-3.913,8.201-8.273c1.551,3.071,4.2,6.881,8.334,8.723C210.634,69.638,206.719,72.403,204.691,76.425z"/>
		</g>
	</g>
	<g>
		<g>
			<path class="st18" d="M183.248,71.31c-0.689,8.179-9.212,9.47-9.212,9.47c7.318,0.344,9.142,9.944,9.142,9.944
				c0.156-6.844,9.422-10.045,9.422-10.045C185.658,80.264,183.248,71.31,183.248,71.31z"/>
		</g>
	</g>
	<g>
		<g>
			<path class="st0" d="M192.689,79.183c-5.767-0.346-7.972-8.187-7.993-8.266c-0.19-0.702-0.863-1.164-1.582-1.102
				c-0.726,0.065-1.3,0.643-1.361,1.368c-0.579,6.871-7.646,8.066-7.942,8.113c-0.763,0.116-1.313,0.791-1.273,1.561
				c0.04,0.771,0.657,1.385,1.428,1.421c6.035,0.284,7.724,8.645,7.739,8.727c0.136,0.713,0.759,1.22,1.473,1.22
				c0.041,0,0.083-0.002,0.125-0.005c0.765-0.063,1.358-0.693,1.376-1.461c0.13-5.709,8.331-8.633,8.411-8.661
				c0.677-0.233,1.094-0.913,0.997-1.622C193.988,79.767,193.403,79.226,192.689,79.183z M183.104,85.977
				c-0.924-1.885-2.34-3.947-4.447-5.279c1.855-1.041,3.697-2.63,4.871-4.917c1.057,1.874,2.653,3.955,4.941,5.225
				C186.62,82.105,184.48,83.744,183.104,85.977z"/>
		</g>
	</g>
	<g>
		<g>
			<path class="st18" d="M183.21,44.653c-0.657,8.182-9.175,9.507-9.175,9.507c7.319,0.316,9.181,9.908,9.181,9.908
				c0.129-6.845,9.383-10.082,9.383-10.082C185.655,53.597,183.21,44.653,183.21,44.653z"/>
		</g>
	</g>
	<g>
		<g>
			<path class="st0" d="M192.682,52.487c-5.741-0.32-7.983-8.083-8.025-8.231c-0.192-0.702-0.874-1.178-1.586-1.097
				c-0.726,0.067-1.297,0.646-1.355,1.373c-0.552,6.873-7.615,8.097-7.911,8.145c-0.762,0.119-1.31,0.796-1.268,1.565
				c0.043,0.771,0.663,1.382,1.434,1.416c6.036,0.261,7.757,8.614,7.772,8.696c0.138,0.71,0.76,1.214,1.472,1.214
				c0.043,0,0.087-0.002,0.13-0.006c0.765-0.065,1.356-0.698,1.371-1.466c0.108-5.71,8.298-8.667,8.378-8.695
				c0.676-0.236,1.09-0.917,0.99-1.626C193.982,53.066,193.396,52.527,192.682,52.487z M183.123,59.32
				c-0.931-1.882-2.355-3.938-4.467-5.263c1.852-1.048,3.687-2.644,4.852-4.936c1.064,1.87,2.669,3.944,4.961,5.205
				C186.623,55.435,184.491,57.083,183.123,59.32z"/>
		</g>
	</g>
	<g>
		<g>
			<path class="st1" d="M128,81c-15.594,0-29.785,5.989-40.413,15.785l-9.268,10.85c-6.297,9.456-9.974,20.807-9.974,33.021
				c0,32.947,26.708,59.656,59.656,59.656c32.947,0,59.655-26.709,59.655-59.656S160.947,81,128,81z"/>
		</g>
	</g>
	<g>
		<g>
			<path class="st0" d="M128,79.5c-15.394,0-30.108,5.747-41.43,16.183c-0.609,0.562-0.647,1.51-0.086,2.119
				c0.56,0.61,1.511,0.648,2.119,0.086C99.369,87.965,113.36,82.5,128,82.5c32.067,0,58.155,26.088,58.155,58.155
				S160.067,198.811,128,198.811c-32.067,0-58.155-26.088-58.155-58.155c0-11.507,3.362-22.638,9.722-32.189
				c0.46-0.689,0.273-1.62-0.417-2.079c-0.686-0.461-1.621-0.274-2.079,0.417c-6.689,10.045-10.226,21.751-10.226,33.852
				c0,33.721,27.435,61.155,61.155,61.155s61.155-27.435,61.155-61.155S161.721,79.5,128,79.5z"/>
		</g>
	</g>
	<g>
		<g>
			<path class="st28" d="M217.895,130.381c-5.396,0-9.771,4.375-9.771,9.771c0,44.18-35.944,80.124-80.124,80.124
				c-44.181,0-80.124-35.944-80.124-80.124c0-37.42,25.789-68.923,60.524-77.69L95.841,82.191
				c-2.898,4.552-1.557,10.592,2.995,13.49c1.627,1.036,3.443,1.53,5.238,1.53c3.229,0,6.389-1.6,8.252-4.525l22.677-35.622
				c1.711-1.76,2.768-4.158,2.768-6.806c0-0.076-0.01-0.149-0.011-0.224c0.052-3.282-1.54-6.514-4.513-8.406L95.679,17.711
				c-4.553-2.899-10.593-1.557-13.49,2.995c-2.898,4.552-1.557,10.592,2.995,13.49l15.75,10.026
				c-41.846,11.823-72.601,50.352-72.601,95.931c0,54.957,44.71,99.667,99.667,99.667c54.956,0,99.667-44.71,99.667-99.667
				C227.667,134.756,223.292,130.381,217.895,130.381z"/>
		</g>
	</g>
	<g>
		<g>
			<path class="st0" d="M217.896,128.882c-6.215,0-11.271,5.056-11.271,11.271c0,43.354-35.271,78.625-78.624,78.625
				s-78.624-35.271-78.624-78.625c0-34.764,22.695-65.147,55.658-75.195L94.575,81.385c-3.337,5.243-1.786,12.224,3.456,15.561
				c1.812,1.155,3.902,1.766,6.044,1.766c3.878,0,7.435-1.951,9.517-5.22l22.597-35.497c1.989-2.104,3.083-4.845,3.083-7.737
				c0-0.078-0.004-0.156-0.012-0.2c0.063-3.956-1.885-7.581-5.207-9.695L96.484,16.445c-2.541-1.617-5.56-2.15-8.497-1.495
				c-2.939,0.652-5.447,2.411-7.064,4.95c-1.616,2.54-2.147,5.557-1.494,8.496c0.652,2.938,2.41,5.447,4.949,7.064l12.987,8.268
				C55.673,57,26.833,96.182,26.833,140.152c0,55.783,45.384,101.167,101.167,101.167s101.167-45.384,101.167-101.167
				C229.167,133.938,224.11,128.882,217.896,128.882z M128,238.319c-54.13,0-98.167-44.037-98.167-98.167
				c0-43.737,29.405-82.592,71.51-94.486c0.568-0.16,0.99-0.641,1.076-1.226c0.086-0.585-0.18-1.166-0.679-1.483L85.989,32.93
				c-1.863-1.186-3.153-3.027-3.633-5.184c-0.479-2.157-0.089-4.371,1.098-6.234c1.186-1.864,3.027-3.154,5.184-3.633
				c0.602-0.134,1.208-0.2,1.81-0.2c1.556,0,3.082,0.441,4.426,1.298l37.568,23.916c2.438,1.551,3.864,4.211,3.819,7.18
				c0,0.023,0.009,0.161,0.011,0.185c0,2.16-0.832,4.206-2.344,5.761c-0.071,0.073-0.135,0.154-0.19,0.24L111.06,91.88
				c-1.526,2.399-4.138,3.831-6.985,3.831c-1.569,0-3.103-0.448-4.433-1.296c-3.848-2.449-4.985-7.571-2.536-11.419l12.56-19.728
				c0.33-0.519,0.311-1.186-0.05-1.684c-0.36-0.498-0.987-0.729-1.583-0.576c-36.303,9.163-61.657,41.708-61.657,79.144
				c0,45.008,36.616,81.625,81.624,81.625s81.624-36.617,81.624-81.625c0-4.561,3.711-8.271,8.271-8.271s8.271,3.71,8.271,8.271
				C226.167,194.282,182.13,238.319,128,238.319z"/>
		</g>
	</g>
	<g>
		<g>
			<path class="st0" d="M93.792,148.251c0.698-0.686,1.304-1.24,1.821-1.664c0.517-0.423,1.542-1.164,3.073-2.223
				c2.578-1.818,4.357-3.487,5.335-5.006c0.976-1.519,1.466-3.113,1.466-4.783c0-1.569-0.427-2.985-1.281-4.249
				c-0.852-1.264-2.023-2.202-3.512-2.812c-1.487-0.61-3.571-0.916-6.248-0.916c-2.566,0-4.574,0.321-6.025,0.962
				c-1.451,0.641-2.574,1.563-3.371,2.765s-1.346,2.874-1.645,5.016l7.621,0.616c0.212-1.544,0.627-2.622,1.243-3.231
				c0.616-0.611,1.411-0.916,2.383-0.916c0.934,0,1.708,0.296,2.326,0.888c0.616,0.592,0.923,1.305,0.923,2.139
				c0,0.773-0.311,1.588-0.934,2.448c-0.622,0.859-2.048,2.117-4.278,3.773c-3.649,2.703-6.137,5.047-7.464,7.034
				c-1.327,1.986-2.12,4.106-2.383,6.361h22.83v-6.202H93.792z"/>
		</g>
	</g>
	<g>
		<g>
			<path class="st0" d="M130.547,143.431v-16.833h-6.633l-13.861,16.477v6.259h13.861v5.119h6.633v-5.119h3.436v-5.903H130.547z
				 M123.914,143.431h-7.325l7.325-8.619V143.431z"/>
		</g>
	</g>
	<g>
		<g>
			<polygon class="st0" points="143.56,126.598 136.719,154.92 140.563,154.92 147.443,126.598 			"/>
		</g>
	</g>
	<g>
		<g>
			<path class="st0" d="M150.944,127.065v6.427h13.525c-2.778,3.45-4.807,6.688-6.09,9.715c-1.283,3.026-2.223,6.775-2.82,11.246
				h7.583c0.25-3.214,0.736-5.997,1.457-8.351c0.911-3.026,2.149-5.772,3.718-8.239c1.295-2.03,2.909-3.917,4.839-5.66v-5.138
				H150.944z"/>
		</g>
	</g>
	<g>
		<g>
			<path class="st3" d="M128,82.5c-2.63,0-5.21,0.19-7.75,0.53l-0.68,1.07c21.18,5.08,37.9,21.79,42.99,42.97h10.6v5.13
				c-1.93,1.75-3.55,3.63-4.84,5.66c-1.57,2.47-2.81,5.22-3.72,8.24c-0.72,2.36-1.21,5.14-1.46,8.35h-0.63
				c-5.36,21.93-23.18,39.03-45.51,43.31c3.56,0.69,7.24,1.05,11,1.05c32.07,0,58.16-26.09,58.16-58.15
				C186.16,108.59,160.07,82.5,128,82.5z"/>
		</g>
	</g>
</g>
</svg>
