<?xml version="1.0" encoding="utf-8"?>
<!-- Generator: Adobe Illustrator 22.0.1, SVG Export Plug-In . SVG Version: 6.00 Build 0)  -->
<svg version="1.1" id="Layer_1" xmlns="http://www.w3.org/2000/svg" xmlns:xlink="http://www.w3.org/1999/xlink" x="0px" y="0px"
	 viewBox="0 0 256 256" style="enable-background:new 0 0 256 256;" xml:space="preserve">
<style type="text/css">
	.st0{fill:#3A312A;}
	.st1{fill:#D6DF58;}
	.st2{fill:#87796F;}
	.st3{fill:#B9C239;}
	.st4{fill:#EF6D7A;}
	.st5{fill:#FCE8CB;}
	.st6{fill:#D5DE58;}
	.st7{fill:#D34E5C;}
	.st8{fill:#695B51;}
	.st9{fill:#8AC6DD;}
	.st10{fill:#D7E057;}
	.st11{fill:#B8C136;}
	.st12{fill:#F16C7A;}
	.st13{fill:#8AC2D9;}
	.st14{fill:#F7E3C7;}
	.st15{fill:#8AC3DA;}
	.st16{fill:#6DA3BC;}
	.st17{fill:#6A5C52;}
	.st18{fill:#D5DC57;}
	.st19{fill:#F6E2C6;}
	.st20{fill:#DBC7AA;}
	.st21{fill:#CE4E61;}
	.st22{fill:#FAE6CA;}
	.st23{fill:#8AC5DC;}
	.st24{fill:#DDC9AC;}
	.st25{fill:#DECAAD;}
	.st26{fill:#6CA6BE;}
	.st27{fill:#F8E4C8;}
	.st28{fill:#89C4DB;}
	.st29{fill:#ED6E7A;}
	.st30{fill:#D24E5C;}
	.st31{fill:#6DA4BD;}
	.st32{fill:#EB6E7A;}
	.st33{fill:#68A7BB;}
	.st34{fill:#B9BC37;}
	.st35{fill:#CC4E61;}
	.st36{fill:#6CA8BF;}
	.st37{fill-rule:evenodd;clip-rule:evenodd;fill:#D5DE58;}
	.st38{fill:#EA6D7A;}
	.st39{fill:#F4E0C4;}
	.st40{fill-rule:evenodd;clip-rule:evenodd;fill:#D6DF58;}
	.st41{fill-rule:evenodd;clip-rule:evenodd;fill:#F16C7A;}
	.st42{fill:#F3DEC3;}
	.st43{fill-rule:evenodd;clip-rule:evenodd;fill:#FAE6CA;}
	.st44{fill:#F59689;}
	.st45{fill-rule:evenodd;clip-rule:evenodd;fill:#F8E4C8;}
	.st46{fill-rule:evenodd;clip-rule:evenodd;fill:#FCE8CB;}
	.st47{fill:#F5978A;}
	.st48{fill:#D4DB56;}
	.st49{fill-rule:evenodd;clip-rule:evenodd;fill:#D4DA55;}
	.st50{fill-rule:evenodd;clip-rule:evenodd;fill:#EB6E7A;}
	.st51{fill:#68A6B9;}
	.st52{fill-rule:evenodd;clip-rule:evenodd;fill:#D5DC57;}
	.st53{fill:#8AC1D8;}
	.st54{fill:#F5E1C5;}
	.st55{fill:#D4D752;}
	.st56{fill:#D3D751;}
	.st57{fill:#D4D853;}
	.st58{fill:#E96C7A;}
	.st59{fill:#D4DA55;}
	.st60{fill:#8BC0D7;}
	.st61{fill:#87796F;stroke:#3A312A;stroke-width:3;stroke-linecap:round;stroke-linejoin:round;stroke-miterlimit:10;}
</style>
<g>
	<g>
		<g>
			<circle class="st1" cx="128" cy="128" r="38.255"/>
		</g>
	</g>
	<g>
		<g>
			<path class="st0" d="M128,88.245c-21.921,0-39.755,17.834-39.755,39.755c0,21.922,17.834,39.756,39.755,39.756
				s39.755-17.834,39.755-39.756C167.755,106.079,149.921,88.245,128,88.245z M128,164.756c-20.267,0-36.755-16.488-36.755-36.756
				c0-20.267,16.488-36.755,36.755-36.755s36.755,16.488,36.755,36.755C164.755,148.268,148.267,164.756,128,164.756z"/>
		</g>
	</g>
	<g>
		<g>
			<path class="st2" d="M132.548,123.674c-5.572-2.097-7.866-3.473-7.866-5.637c0-1.834,1.377-3.67,5.637-3.67
				c4.719,0,7.734,1.507,9.438,2.229l1.901-7.406c-2.163-1.049-5.113-1.968-9.504-2.163v-5.769h-6.424v6.227
				c-7.013,1.376-11.077,5.899-11.077,11.668c0,6.358,4.785,9.636,11.798,11.995c4.851,1.639,6.948,3.212,6.948,5.702
				c0,2.623-2.557,4.064-6.292,4.064c-4.261,0-8.128-1.376-10.881-2.883l-1.966,7.668c2.491,1.442,6.751,2.622,11.142,2.819v6.227
				h6.424v-6.686c7.538-1.31,11.668-6.292,11.668-12.126C143.495,130.032,140.348,126.427,132.548,123.674z"/>
		</g>
	</g>
	<g>
		<g>
			<path class="st0" d="M133.077,122.27c-4.961-1.867-6.895-3.054-6.895-4.233c0-1.889,2.592-2.17,4.138-2.17
				c3.994,0,6.623,1.143,8.363,1.898l0.49,0.211c0.402,0.17,0.859,0.157,1.25-0.037c0.392-0.193,0.679-0.548,0.788-0.971
				l1.901-7.406c0.177-0.691-0.157-1.412-0.799-1.723c-2.495-1.21-5.339-1.94-8.659-2.22v-4.362c0-0.829-0.671-1.5-1.5-1.5h-6.424
				c-0.829,0-1.5,0.671-1.5,1.5v5.029c-6.867,1.766-11.077,6.608-11.077,12.865c0,8.07,6.851,11.409,12.818,13.416
				c5.21,1.761,5.928,3.098,5.928,4.281c0,2.44-3.992,2.564-4.792,2.564c-4.552,0-8.32-1.691-10.16-2.699
				c-0.407-0.223-0.893-0.244-1.318-0.061c-0.425,0.185-0.741,0.555-0.856,1.004l-1.966,7.669c-0.167,0.65,0.12,1.334,0.702,1.67
				c2.564,1.484,6.447,2.564,10.394,2.922v4.825c0,0.828,0.671,1.5,1.5,1.5h6.424c0.829,0,1.5-0.672,1.5-1.5v-5.463
				c7.131-1.688,11.668-6.819,11.668-13.349C144.995,129.304,141.422,125.215,133.077,122.27z M131.57,146.579
				c-0.719,0.125-1.243,0.748-1.243,1.478v5.187h-3.424v-4.727c0-0.802-0.631-1.463-1.433-1.498
				c-3.417-0.154-6.983-0.959-9.46-2.104l1.209-4.718c2.338,1.056,5.832,2.216,9.888,2.216c4.734,0,7.792-2.185,7.792-5.564
				c0-3.895-3.83-5.726-7.97-7.124c-7.554-2.541-10.776-5.703-10.776-10.573c0-5.172,3.688-8.983,9.866-10.196
				c0.704-0.138,1.211-0.754,1.211-1.472v-4.727h3.424v4.269c0,0.803,0.632,1.463,1.433,1.499c3.012,0.134,5.578,0.634,7.802,1.522
				l-1.151,4.484c-1.89-0.766-4.645-1.664-8.419-1.664c-5.263,0-7.138,2.671-7.138,5.17c0,3.441,3.831,5.156,8.867,7.051
				c8.254,2.914,9.945,6.442,9.945,10.843C141.995,141.382,138,145.462,131.57,146.579z"/>
		</g>
	</g>
	<g>
		<g>
			<path class="st5" d="M232.084,155.531c-1.67-0.08-3.37,0.28-4.93,1.09l-33.56,17.48h-53.14c-11.58,0-22.92,3.27-32.72,9.44
				l-7.48,4.7c-2.86,1.8-6.18,2.76-9.57,2.76h-0.95v7.87c0.006,0,0.01-0.001,0.016-0.001v14.722c-0.006,0-0.01-0.001-0.016-0.001
				v9.02l71.25-2.19c6.11-0.4,11.99-2.45,17.02-5.95l59.22-45.53c1.94-1.35,2.57-3.24,2.62-5.06
				C239.954,159.531,236.434,155.721,232.084,155.531z"/>
		</g>
	</g>
	<g>
		<g>
			<path class="st0" d="M232.155,154.033c-1.957-0.097-3.927,0.34-5.694,1.258l-33.234,17.311h-52.773
				c-11.88,0-23.471,3.344-33.518,9.669l-7.481,4.701c-2.629,1.654-5.662,2.529-8.771,2.529h-0.95c-0.829,0-1.5,0.672-1.5,1.5v7.87
				c0.001,0.858,0.686,1.562,1.596,1.497c0.792-0.042,1.42-0.696,1.42-1.498c0-0.075-0.005-0.148-0.016-0.221v-6.156
				c3.482-0.098,6.865-1.124,9.817-2.981l7.482-4.701c9.569-6.024,20.607-9.209,31.921-9.209h53.14c0.241,0,0.479-0.059,0.693-0.17
				l33.558-17.479c1.295-0.672,2.731-0.999,4.173-0.922c3.519,0.153,6.416,3.273,6.326,6.81c-0.047,1.711-0.693,2.977-2.034,3.912
				l-59.163,45.488c-4.794,3.337-10.417,5.302-16.209,5.682l-69.704,2.143v-7.252c0.011-0.072,0.016-0.146,0.016-0.221
				c0-0.802-0.629-1.457-1.421-1.498c-0.032-0.002-0.065-0.003-0.095-0.003c-0.829,0-1.5,0.672-1.5,1.5v9.021
				c0,0.406,0.165,0.794,0.456,1.077c0.28,0.271,0.655,0.423,1.044,0.423c0.015,0,0.031,0,0.046-0.001l71.302-2.192
				c6.389-0.418,12.537-2.567,17.837-6.257l59.163-45.489c2.061-1.435,3.189-3.597,3.262-6.253
				C241.474,158.784,237.263,154.257,232.155,154.033z"/>
		</g>
	</g>
	<g>
		<g>
			<path class="st0" d="M195.092,174.879c-0.314-0.767-1.19-1.131-1.956-0.818c-0.767,0.314-1.133,1.19-0.819,1.957
				c1.16,2.828-0.496,6.243-2.731,8.155c-2.609,2.231-6.238,3.314-9.44,4.27c-7.229,2.157-13.784,3.487-20.723,4.895
				c-6.705,1.359-13.638,2.766-22.193,5.072c-0.8,0.216-1.273,1.039-1.058,1.839c0.18,0.669,0.786,1.109,1.447,1.109
				c0.129,0,0.261-0.017,0.392-0.052c8.462-2.282,15.349-3.679,22.008-5.029c7.008-1.421,13.627-2.764,20.985-4.959
				c3.487-1.041,7.439-2.22,10.532-4.865C194.496,183.921,196.872,179.219,195.092,174.879z"/>
		</g>
	</g>
	<g>
		<g>
			<rect x="16.154" y="175.083" class="st12" width="47.25" height="64.397"/>
		</g>
	</g>
	<g>
		<g>
			<path class="st0" d="M63.404,173.582H44.846c-0.829,0-1.5,0.672-1.5,1.5s0.671,1.5,1.5,1.5h17.058v61.397h-44.25v-61.397h13
				c0.829,0,1.5-0.672,1.5-1.5s-0.671-1.5-1.5-1.5h-14.5c-0.829,0-1.5,0.672-1.5,1.5v64.397c0,0.828,0.671,1.5,1.5,1.5h47.25
				c0.829,0,1.5-0.672,1.5-1.5v-64.397C64.904,174.254,64.232,173.582,63.404,173.582z"/>
		</g>
	</g>
	<g>
		<g>
			<path class="st9" d="M81.746,175.083H63.404v64.397h18.342c4.413,0,7.991-3.578,7.991-7.991v-48.415
				C89.737,178.66,86.159,175.083,81.746,175.083z"/>
		</g>
	</g>
	<g>
		<g>
			<path class="st0" d="M89.737,200.371c0.829,0,1.5-0.672,1.5-1.5v-15.798c0-5.233-4.258-9.491-9.491-9.491H63.404
				c-0.829,0-1.5,0.672-1.5,1.5v64.397c0,0.828,0.671,1.5,1.5,1.5h18.342c5.233,0,9.491-4.258,9.491-9.491v-17.896
				c0-0.828-0.671-1.5-1.5-1.5s-1.5,0.672-1.5,1.5v17.896c0,3.579-2.912,6.491-6.491,6.491H64.904v-61.397h16.842
				c3.579,0,6.491,2.912,6.491,6.491v15.798C88.237,199.699,88.909,200.371,89.737,200.371z"/>
		</g>
	</g>
	<g>
		<g>
			<path class="st2" d="M76.57,220.096c-3.329,0-6.028,2.699-6.028,6.028c0,3.329,2.699,6.028,6.028,6.028
				c3.329,0,6.028-2.699,6.028-6.028C82.598,222.795,79.899,220.096,76.57,220.096z"/>
		</g>
	</g>
	<g>
		<g>
			<path class="st0" d="M76.57,218.597c-4.151,0-7.528,3.377-7.528,7.527s3.377,7.527,7.528,7.527s7.528-3.377,7.528-7.527
				S80.721,218.597,76.57,218.597z M76.57,230.651c-2.497,0-4.528-2.031-4.528-4.527s2.031-4.527,4.528-4.527
				s4.528,2.031,4.528,4.527S79.067,230.651,76.57,230.651z"/>
		</g>
	</g>
	<g>
		<g>
			<path class="st25" d="M232.024,157.031c-1.45-0.07-2.9,0.25-4.18,0.92l-4.22,2.2c0.69,1.08,1.08,2.35,1.05,3.69
				c-0.04,1.71-0.69,2.98-2.03,3.91l-59.17,45.49c-7.07,4.959-16.561,5.97-16.545,6.11l14.015-0.43c5.78-0.37,11.4-2.34,16.2-5.68
				l59.17-45.49c1.34-0.93,1.98-2.2,2.03-3.91C238.434,160.301,235.544,157.181,232.024,157.031z"/>
		</g>
	</g>
	<g>
		<g>
			<path class="st5" d="M166.266,42.409v-9.02l-71.25,2.19c-6.11,0.4-11.99,2.45-17.02,5.95l-59.22,45.53
				c-1.94,1.35-2.57,3.24-2.62,5.06c-0.11,4.35,3.41,8.16,7.76,8.35c1.67,0.08,3.37-0.28,4.93-1.09l33.56-17.48h53.14
				c11.58,0,22.92-3.27,32.72-9.44l7.48-4.7c2.86-1.8,6.18-2.76,9.57-2.76h0.95v-7.87c-0.006,0-0.01,0.001-0.016,0.001V42.408
				C166.256,42.408,166.261,42.409,166.266,42.409z"/>
		</g>
	</g>
	<g>
		<g>
			<path class="st0" d="M164.75,42.408c0,0.801,0.628,1.456,1.419,1.498c0.913,0.058,1.597-0.638,1.597-1.497v-9.02
				c0-0.406-0.164-0.794-0.456-1.077c-0.292-0.283-0.698-0.441-1.09-0.423l-71.302,2.193C88.529,34.5,82.382,36.65,77.082,40.34
				L17.919,85.828c-2.061,1.436-3.189,3.597-3.262,6.253c-0.13,5.136,4.08,9.664,9.188,9.886c0.175,0.009,0.35,0.013,0.524,0.013
				c1.785,0,3.562-0.435,5.17-1.27l33.234-17.311h52.772c11.88,0,23.471-3.344,33.518-9.67l7.481-4.701
				c2.63-1.655,5.663-2.53,8.771-2.53h0.95c0.829,0,1.5-0.671,1.5-1.5v-7.87c0-0.858-0.674-1.544-1.596-1.497
				c-0.792,0.042-1.42,0.696-1.42,1.498c0,0.075,0.005,0.148,0.016,0.221v6.156c-3.481,0.098-6.865,1.124-9.817,2.982l-7.482,4.701
				c-9.569,6.025-20.607,9.209-31.921,9.209h-53.14c-0.241,0-0.479,0.058-0.693,0.169L28.155,98.048
				c-1.294,0.672-2.737,0.992-4.173,0.922c-3.519-0.154-6.416-3.274-6.326-6.811c0.047-1.71,0.693-2.976,2.034-3.912L78.853,42.76
				c4.794-3.336,10.417-5.302,16.209-5.682l69.704-2.143v7.251C164.755,42.259,164.75,42.333,164.75,42.408z"/>
		</g>
	</g>
	<g>
		<g>
			<path class="st0" d="M119.828,55.752c-0.215-0.8-1.039-1.274-1.839-1.058c-8.462,2.281-15.347,3.678-22.006,5.028
				c-7.008,1.421-13.628,2.764-20.987,4.96c-3.487,1.041-7.44,2.22-10.532,4.865c-2.96,2.532-5.336,7.233-3.556,11.573
				c0.238,0.581,0.798,0.932,1.388,0.932c0.189,0,0.382-0.036,0.568-0.113c0.767-0.314,1.133-1.19,0.819-1.957
				c-1.16-2.829,0.496-6.244,2.731-8.155c2.61-2.232,6.238-3.315,9.44-4.27c7.23-2.158,13.785-3.487,20.725-4.895
				c6.705-1.36,13.637-2.766,22.191-5.072C119.57,57.375,120.044,56.552,119.828,55.752z"/>
		</g>
	</g>
	<g>
		<g>
			<rect x="192.596" y="16.52" class="st12" width="47.25" height="64.397"/>
		</g>
	</g>
	<g>
		<g>
			<path class="st0" d="M239.846,15.021h-47.25c-0.829,0-1.5,0.671-1.5,1.5v64.397c0,0.829,0.671,1.5,1.5,1.5h18.558
				c0.829,0,1.5-0.671,1.5-1.5s-0.671-1.5-1.5-1.5h-17.058V18.021h44.25v61.397h-13c-0.829,0-1.5,0.671-1.5,1.5s0.671,1.5,1.5,1.5
				h14.5c0.829,0,1.5-0.671,1.5-1.5V16.521C241.346,15.692,240.675,15.021,239.846,15.021z"/>
		</g>
	</g>
	<g>
		<g>
			<path class="st9" d="M174.254,16.52c-4.413,0-7.991,3.578-7.991,7.991v48.415c0,4.413,3.578,7.991,7.991,7.991h18.342V16.52
				H174.254z"/>
		</g>
	</g>
	<g>
		<g>
			<path class="st0" d="M192.596,15.021h-18.342c-5.233,0-9.491,4.257-9.491,9.491v17.897c0,0.829,0.671,1.5,1.5,1.5
				s1.5-0.671,1.5-1.5V24.511c0-3.579,2.912-6.491,6.491-6.491h16.842v61.397h-16.842c-3.579,0-6.491-2.912-6.491-6.491V57.129
				c0-0.829-0.671-1.5-1.5-1.5s-1.5,0.671-1.5,1.5v15.798c0,5.233,4.258,9.491,9.491,9.491h18.342c0.829,0,1.5-0.671,1.5-1.5V16.521
				C194.096,15.692,193.425,15.021,192.596,15.021z"/>
		</g>
	</g>
	<g>
		<g>
			<path class="st2" d="M179.43,23.848c-3.329,0-6.028,2.699-6.028,6.028c0,3.329,2.699,6.028,6.028,6.028
				c3.329,0,6.028-2.699,6.028-6.028C185.457,26.547,182.759,23.848,179.43,23.848z"/>
		</g>
	</g>
	<g>
		<g>
			<path class="st0" d="M179.43,22.348c-4.151,0-7.528,3.377-7.528,7.528s3.377,7.528,7.528,7.528c4.151,0,7.528-3.377,7.528-7.528
				S183.581,22.348,179.43,22.348z M179.43,34.404c-2.497,0-4.528-2.031-4.528-4.528s2.031-4.528,4.528-4.528
				s4.528,2.031,4.528,4.528S181.926,34.404,179.43,34.404z"/>
		</g>
	</g>
	<g>
		<g>
			<path class="st1" d="M47.066,120.244c-0.974,11.564-13.024,13.389-13.024,13.389c10.347,0.487,12.925,14.059,12.925,14.059
				c0.221-9.677,13.321-14.202,13.321-14.202C50.474,132.904,47.066,120.244,47.066,120.244z"/>
		</g>
	</g>
	<g>
		<g>
			<path class="st0" d="M60.377,131.994c-8.605-0.516-11.833-12.025-11.864-12.141c-0.191-0.703-0.865-1.169-1.584-1.102
				c-0.725,0.066-1.298,0.642-1.359,1.367c-0.86,10.215-11.313,11.963-11.754,12.032c-0.763,0.116-1.313,0.791-1.273,1.561
				c0.04,0.771,0.657,1.385,1.427,1.421c9.028,0.426,11.499,12.719,11.523,12.844c0.137,0.711,0.759,1.217,1.472,1.217
				c0.042,0,0.084-0.002,0.126-0.005c0.764-0.064,1.357-0.693,1.375-1.46c0.195-8.509,12.192-12.777,12.313-12.819
				c0.675-0.234,1.092-0.914,0.994-1.622C61.675,132.578,61.091,132.037,60.377,131.994z M46.811,142.34
				c-1.356-3.131-3.709-6.908-7.587-8.877c2.931-1.404,6.409-3.913,8.202-8.273c1.551,3.071,4.2,6.88,8.334,8.722
				C52.753,135.553,48.837,138.318,46.811,142.34z"/>
		</g>
	</g>
	<g>
		<g>
			<path class="st1" d="M25.367,137.225c-0.689,8.179-9.212,9.47-9.212,9.47c7.318,0.344,9.142,9.944,9.142,9.944
				c0.156-6.844,9.422-10.045,9.422-10.045C27.778,146.179,25.367,137.225,25.367,137.225z"/>
		</g>
	</g>
	<g>
		<g>
			<path class="st0" d="M34.809,145.098c-5.766-0.346-7.972-8.187-7.994-8.266c-0.19-0.702-0.855-1.164-1.582-1.102
				c-0.726,0.065-1.299,0.643-1.36,1.368c-0.579,6.871-7.646,8.066-7.942,8.113c-0.763,0.116-1.313,0.791-1.273,1.561
				c0.04,0.771,0.657,1.385,1.427,1.421c6.035,0.284,7.724,8.645,7.739,8.727c0.135,0.713,0.759,1.22,1.473,1.22
				c0.041,0,0.083-0.002,0.125-0.005c0.765-0.063,1.358-0.693,1.376-1.461c0.13-5.709,8.331-8.633,8.412-8.661
				c0.676-0.233,1.094-0.913,0.996-1.622C36.107,145.682,35.523,145.141,34.809,145.098z M25.224,151.892
				c-0.924-1.885-2.34-3.947-4.447-5.279c1.855-1.041,3.697-2.63,4.871-4.917c1.057,1.874,2.654,3.955,4.941,5.225
				C28.739,148.021,26.6,149.659,25.224,151.892z"/>
		</g>
	</g>
	<g>
		<g>
			<path class="st1" d="M25.329,110.567c-0.657,8.182-9.175,9.507-9.175,9.507c7.319,0.316,9.181,9.909,9.181,9.909
				c0.129-6.845,9.383-10.083,9.383-10.083C27.775,119.512,25.329,110.567,25.329,110.567z"/>
		</g>
	</g>
	<g>
		<g>
			<path class="st0" d="M34.801,118.403c-5.767-0.323-8.004-8.154-8.026-8.233c-0.193-0.702-0.867-1.164-1.586-1.096
				c-0.726,0.068-1.297,0.647-1.355,1.374c-0.552,6.873-7.615,8.097-7.911,8.145c-0.762,0.119-1.31,0.796-1.267,1.566
				c0.043,0.77,0.663,1.382,1.433,1.415c6.036,0.261,7.756,8.614,7.772,8.696c0.138,0.71,0.76,1.214,1.471,1.214
				c0.044,0,0.087-0.002,0.131-0.006c0.765-0.066,1.356-0.698,1.37-1.466c0.108-5.709,8.298-8.666,8.378-8.694
				c0.676-0.236,1.09-0.917,0.99-1.626C36.103,118.982,35.516,118.443,34.801,118.403z M25.243,125.235
				c-0.931-1.882-2.356-3.938-4.468-5.262c1.852-1.048,3.687-2.645,4.852-4.936c1.064,1.87,2.67,3.944,4.961,5.205
				C28.743,121.35,26.61,122.998,25.243,125.235z"/>
		</g>
	</g>
</g>
</svg>
