<?xml version="1.0" encoding="utf-8"?>
<!-- Generator: Adobe Illustrator 22.0.1, SVG Export Plug-In . SVG Version: 6.00 Build 0)  -->
<svg version="1.1" id="Layer_1" xmlns="http://www.w3.org/2000/svg" xmlns:xlink="http://www.w3.org/1999/xlink" x="0px" y="0px"
	 viewBox="0 0 256 256" style="enable-background:new 0 0 256 256;" xml:space="preserve">
<style type="text/css">
	.st0{fill:#3A312A;}
	.st1{fill:#D6DF58;}
	.st2{fill:#87796F;}
	.st3{fill:#B9C239;}
	.st4{fill:#EF6D7A;}
	.st5{fill:#FCE8CB;}
	.st6{fill:#D5DE58;}
	.st7{fill:#D34E5C;}
	.st8{fill:#695B51;}
	.st9{fill:#8AC6DD;}
	.st10{fill:#D7E057;}
	.st11{fill:#B8C136;}
	.st12{fill:#F16C7A;}
	.st13{fill:#8AC2D9;}
	.st14{fill:#F7E3C7;}
	.st15{fill:#8AC3DA;}
	.st16{fill:#6DA3BC;}
	.st17{fill:#6A5C52;}
	.st18{fill:#D5DC57;}
	.st19{fill:#F6E2C6;}
	.st20{fill:#DBC7AA;}
	.st21{fill:#CE4E61;}
	.st22{fill:#FAE6CA;}
	.st23{fill:#8AC5DC;}
	.st24{fill:#DDC9AC;}
	.st25{fill:#DECAAD;}
	.st26{fill:#6CA6BE;}
	.st27{fill:#F8E4C8;}
	.st28{fill:#89C4DB;}
	.st29{fill:#ED6E7A;}
	.st30{fill:#D24E5C;}
	.st31{fill:#6DA4BD;}
	.st32{fill:#EB6E7A;}
	.st33{fill:#68A7BB;}
	.st34{fill:#B9BC37;}
	.st35{fill:#CC4E61;}
	.st36{fill:#6CA8BF;}
	.st37{fill-rule:evenodd;clip-rule:evenodd;fill:#D5DE58;}
	.st38{fill:#EA6D7A;}
	.st39{fill:#F4E0C4;}
	.st40{fill-rule:evenodd;clip-rule:evenodd;fill:#D6DF58;}
	.st41{fill-rule:evenodd;clip-rule:evenodd;fill:#F16C7A;}
	.st42{fill:#F3DEC3;}
	.st43{fill-rule:evenodd;clip-rule:evenodd;fill:#FAE6CA;}
	.st44{fill:#F59689;}
	.st45{fill-rule:evenodd;clip-rule:evenodd;fill:#F8E4C8;}
	.st46{fill-rule:evenodd;clip-rule:evenodd;fill:#FCE8CB;}
	.st47{fill:#F5978A;}
	.st48{fill:#D4DB56;}
	.st49{fill-rule:evenodd;clip-rule:evenodd;fill:#D4DA55;}
	.st50{fill-rule:evenodd;clip-rule:evenodd;fill:#EB6E7A;}
	.st51{fill:#68A6B9;}
	.st52{fill-rule:evenodd;clip-rule:evenodd;fill:#D5DC57;}
	.st53{fill:#8AC1D8;}
	.st54{fill:#F5E1C5;}
	.st55{fill:#D4D752;}
	.st56{fill:#D3D751;}
	.st57{fill:#D4D853;}
	.st58{fill:#E96C7A;}
	.st59{fill:#D4DA55;}
	.st60{fill:#8BC0D7;}
	.st61{fill:#87796F;stroke:#3A312A;stroke-width:3;stroke-linecap:round;stroke-linejoin:round;stroke-miterlimit:10;}
</style>
<g>
	<g>
		<g>
			<path class="st12" d="M193.282,87.158H23.005c-3.169,0-5.738,2.569-5.738,5.738v14.656c0,3.169,2.569,5.738,5.738,5.738h170.278
				c3.169,0,5.738-2.569,5.738-5.738V92.896C199.02,89.727,196.451,87.158,193.282,87.158z"/>
		</g>
	</g>
	<g>
		<g>
			<path class="st0" d="M193.282,85.658H67.504c-0.829,0-1.5,0.671-1.5,1.5s0.671,1.5,1.5,1.5h125.778
				c2.337,0,4.238,1.901,4.238,4.238v14.656c0,2.337-1.901,4.238-4.238,4.238H23.005c-2.337,0-4.238-1.901-4.238-4.238V92.896
				c0-2.337,1.901-4.238,4.238-4.238h29.801c0.829,0,1.5-0.671,1.5-1.5s-0.671-1.5-1.5-1.5H23.005c-3.991,0-7.238,3.247-7.238,7.238
				v14.656c0,3.991,3.247,7.238,7.238,7.238h170.277c3.991,0,7.238-3.247,7.238-7.238V92.896
				C200.521,88.905,197.273,85.658,193.282,85.658z"/>
		</g>
	</g>
	<g>
		<g>
			<path class="st12" d="M27.414,113.29v119.893c0,3.528,2.86,6.387,6.388,6.387h145.977c3.528,0,6.388-2.86,6.388-6.387V113.29
				H27.414z"/>
		</g>
	</g>
	<g>
		<g>
			<path class="st0" d="M186.167,111.79H27.414c-0.829,0-1.5,0.671-1.5,1.5v24.006c0,0.829,0.671,1.5,1.5,1.5
				c0.829,0,1.5-0.671,1.5-1.5V114.79h155.753v118.393c0,2.695-2.192,4.888-4.888,4.888H33.802c-2.695,0-4.888-2.192-4.888-4.888
				v-81.299c0-0.829-0.671-1.5-1.5-1.5c-0.829,0-1.5,0.671-1.5,1.5v81.299c0,4.349,3.539,7.888,7.888,7.888h145.977
				c4.349,0,7.888-3.539,7.888-7.888V113.29C187.667,112.461,186.996,111.79,186.167,111.79z"/>
		</g>
	</g>
	<g>
		<g>
			<rect x="78.564" y="87.158" class="st10" width="60.788" height="26.132"/>
		</g>
	</g>
	<g>
		<g>
			<path class="st0" d="M139.352,85.658H78.565c-0.829,0-1.5,0.671-1.5,1.5v26.132c0,0.829,0.671,1.5,1.5,1.5h60.788
				c0.829,0,1.5-0.671,1.5-1.5V87.158C140.852,86.33,140.181,85.658,139.352,85.658z M137.852,111.79H80.065V88.658h57.788V111.79z"
				/>
		</g>
	</g>
	<g>
		<g>
			<polygon class="st10" points="78.564,113.307 78.564,153.584 97.005,140.543 103.253,153.584 110.724,146.792 119.418,153.584 
				128.927,146.045 139.353,153.584 139.353,113.307 			"/>
		</g>
	</g>
	<g>
		<g>
			<path class="st0" d="M139.352,111.808H78.565c-0.829,0-1.5,0.671-1.5,1.5v40.276c0,0.561,0.313,1.074,0.81,1.332
				c0.499,0.258,1.097,0.217,1.556-0.107l16.989-12.014l5.481,11.438c0.205,0.428,0.6,0.733,1.065,0.824
				c0.096,0.019,0.192,0.028,0.288,0.028c0.37,0,0.73-0.137,1.009-0.39l6.536-5.941l7.697,6.014
				c0.545,0.426,1.313,0.423,1.855-0.007l8.619-6.833l9.505,6.873c0.456,0.33,1.06,0.376,1.562,0.121
				c0.501-0.256,0.817-0.772,0.817-1.336v-40.276C140.852,112.479,140.181,111.808,139.352,111.808z M137.852,150.648l-8.046-5.818
				c-0.543-0.394-1.284-0.378-1.811,0.04l-8.584,6.806l-7.763-6.065c-0.272-0.212-0.598-0.318-0.923-0.318
				c-0.362,0-0.724,0.131-1.009,0.39l-5.981,5.437l-5.378-11.223c-0.191-0.399-0.548-0.693-0.975-0.804
				c-0.428-0.11-0.883-0.028-1.244,0.227l-16.074,11.367v-35.878h57.788V150.648z"/>
		</g>
	</g>
	<g>
		<g>
			<path class="st2" d="M93.676,214.168H46.268c-1.951,0-3.532,1.581-3.532,3.532v3.803c0,1.951,1.581,3.532,3.532,3.532h47.408
				c1.951,0,3.532-1.581,3.532-3.532V217.7C97.208,215.75,95.627,214.168,93.676,214.168z"/>
		</g>
	</g>
	<g>
		<g>
			<path class="st0" d="M93.676,212.668H46.269c-2.774,0-5.032,2.257-5.032,5.032v3.804c0,2.774,2.257,5.032,5.032,5.032h47.408
				c2.775,0,5.032-2.257,5.032-5.032V217.7C98.708,214.926,96.451,212.668,93.676,212.668z M95.708,221.504
				c0,1.12-0.912,2.032-2.032,2.032H46.269c-1.12,0-2.032-0.912-2.032-2.032V217.7c0-1.12,0.912-2.032,2.032-2.032h47.408
				c1.121,0,2.032,0.912,2.032,2.032V221.504z"/>
		</g>
	</g>
	<g>
		<g>
			<path class="st10" d="M47.702,26.106c-0.974,11.564-13.025,13.39-13.025,13.39c10.347,0.487,12.925,14.059,12.925,14.059
				c0.221-9.677,13.321-14.202,13.321-14.202C51.11,38.766,47.702,26.106,47.702,26.106z"/>
		</g>
	</g>
	<g>
		<g>
			<path class="st0" d="M61.013,37.855c-8.604-0.514-11.831-12.024-11.863-12.14c-0.191-0.703-0.862-1.163-1.583-1.102
				c-0.725,0.066-1.298,0.642-1.359,1.367c-0.86,10.215-11.314,11.963-11.755,12.032c-0.763,0.115-1.313,0.79-1.273,1.561
				c0.04,0.77,0.657,1.384,1.427,1.421c9.028,0.425,11.499,12.718,11.523,12.842c0.137,0.711,0.759,1.217,1.472,1.217
				c0.042,0,0.084-0.001,0.126-0.005c0.764-0.064,1.357-0.693,1.375-1.459c0.195-8.508,12.192-12.777,12.313-12.819
				c0.675-0.235,1.092-0.915,0.994-1.623C62.31,38.439,61.727,37.898,61.013,37.855z M47.447,48.201
				c-1.357-3.13-3.709-6.907-7.587-8.876c2.931-1.405,6.409-3.913,8.202-8.273c1.551,3.071,4.199,6.88,8.334,8.722
				C53.389,41.414,49.473,44.18,47.447,48.201z"/>
		</g>
	</g>
	<g>
		<g>
			<path class="st10" d="M26.003,43.087c-0.689,8.179-9.212,9.471-9.212,9.471c7.318,0.344,9.142,9.944,9.142,9.944
				c0.156-6.845,9.422-10.046,9.422-10.046C28.413,52.041,26.003,43.087,26.003,43.087z"/>
		</g>
	</g>
	<g>
		<g>
			<path class="st0" d="M35.444,50.958c-5.766-0.345-7.972-8.185-7.994-8.264c-0.19-0.702-0.852-1.165-1.582-1.102
				c-0.726,0.065-1.299,0.643-1.36,1.368c-0.579,6.871-7.646,8.067-7.942,8.114c-0.763,0.115-1.313,0.79-1.273,1.561
				c0.04,0.77,0.657,1.384,1.428,1.421c6.035,0.284,7.723,8.644,7.739,8.725c0.135,0.713,0.759,1.22,1.472,1.22
				c0.042,0,0.083-0.001,0.125-0.005c0.765-0.063,1.358-0.693,1.376-1.461c0.131-5.709,8.332-8.634,8.413-8.662
				c0.677-0.234,1.094-0.913,0.996-1.622C36.743,51.543,36.158,51.001,35.444,50.958z M25.859,57.754
				c-0.924-1.886-2.34-3.947-4.447-5.28c1.856-1.041,3.697-2.629,4.87-4.916c1.057,1.874,2.655,3.954,4.941,5.223
				C29.375,53.882,27.236,55.521,25.859,57.754z"/>
		</g>
	</g>
	<g>
		<g>
			<path class="st10" d="M26.003,16.429c-0.689,8.179-9.212,9.47-9.212,9.47c7.318,0.344,9.142,9.944,9.142,9.944
				c0.156-6.844,9.422-10.045,9.422-10.045C28.413,25.383,26.003,16.429,26.003,16.429z"/>
		</g>
	</g>
	<g>
		<g>
			<path class="st0" d="M35.444,24.301c-5.767-0.345-7.973-8.186-7.994-8.265c-0.19-0.702-0.852-1.166-1.582-1.102
				c-0.726,0.065-1.299,0.643-1.36,1.368c-0.579,6.871-7.646,8.067-7.942,8.114c-0.763,0.115-1.313,0.79-1.273,1.561
				c0.04,0.77,0.657,1.384,1.428,1.421c6.035,0.284,7.723,8.644,7.739,8.726c0.135,0.713,0.759,1.22,1.473,1.22
				c0.041,0,0.083-0.001,0.125-0.005c0.765-0.063,1.358-0.693,1.376-1.461c0.131-5.709,8.332-8.634,8.413-8.662
				c0.676-0.234,1.094-0.913,0.996-1.622C36.743,24.886,36.159,24.344,35.444,24.301z M25.859,31.097
				c-0.924-1.886-2.34-3.948-4.447-5.28c1.856-1.041,3.697-2.629,4.87-4.916c1.057,1.874,2.655,3.954,4.941,5.224
				C29.375,27.225,27.236,28.864,25.859,31.097z"/>
		</g>
	</g>
	<g>
		<g>
			
				<ellipse transform="matrix(0.7071 -0.7071 0.7071 0.7071 -5.3397 147.5382)" class="st22" cx="175.424" cy="80.215" rx="63.785" ry="63.785"/>
		</g>
	</g>
	<g>
		<g>
			<path class="st0" d="M175.424,14.929c-35.999,0-65.285,29.287-65.285,65.286s29.287,65.285,65.285,65.285
				c35.999,0,65.286-29.287,65.286-65.285S211.423,14.929,175.424,14.929z M175.424,142.5c-34.344,0-62.285-27.941-62.285-62.285
				s27.941-62.286,62.285-62.286c34.344,0,62.286,27.941,62.286,62.286S209.769,142.5,175.424,142.5z"/>
		</g>
	</g>
	<g>
		<g>
			<path class="st23" d="M217.336,81.326c-2.62-0.149-4.792,1.931-4.792,4.519c0,21.116-17.723,38.171-39.075,37.07
				c-18.615-0.96-33.781-15.848-35.073-34.444c-0.027-0.383-0.047-0.765-0.062-1.146c-0.297-7.573,1.888-15.036,5.959-21.428
				c2.558-4.017,5.81-7.57,9.692-10.329c3.681-2.616,7.857-4.578,12.359-5.715l-5.749,9.03c-1.252,1.967-0.911,4.614,0.912,6.069
				c0.85,0.678,1.848,0.999,2.833,0.999c1.496,0,2.96-0.741,3.823-2.097l10.506-16.503c0.792-0.815,1.282-1.926,1.282-3.153
				c0-0.035-0.004-0.069-0.005-0.104c0.024-1.521-0.714-3.018-2.091-3.894l-17.405-11.08c-2.194-1.397-5.133-0.668-6.404,1.648
				c-1.16,2.113-0.361,4.778,1.673,6.073l7.165,4.561c-19.788,5.59-34.222,24.071-33.616,45.757
				c0.681,24.403,20.556,44.225,44.961,44.844c25.93,0.658,47.246-20.181,47.368-45.936
				C221.609,83.617,219.782,81.465,217.336,81.326z"/>
		</g>
	</g>
	<g>
		<g>
			<path class="st0" d="M217.422,79.828c-1.68-0.103-3.271,0.485-4.488,1.635c-1.2,1.134-1.889,2.731-1.889,4.382
				c0,9.848-3.945,19.018-11.108,25.822c-7.156,6.796-16.533,10.255-26.39,9.75c-17.941-0.925-32.409-15.133-33.654-33.049
				c-0.025-0.368-0.046-0.736-0.06-1.101c-0.28-7.132,1.7-14.243,5.726-20.564c2.552-4.008,5.68-7.343,9.295-9.913c0,0,0,0,0,0
				c2.501-1.778,5.187-3.21,8.02-4.279l-3.544,5.566c-1.698,2.668-1.164,6.127,1.242,8.046c1.087,0.869,2.39,1.328,3.769,1.328
				c2.074,0,3.976-1.043,5.088-2.791l10.429-16.382c1.029-1.117,1.594-2.559,1.594-4.08c0-0.056-0.003-0.112-0.005-0.08
				c0.033-2.115-1.008-4.053-2.785-5.183l-17.405-11.08c-1.4-0.892-3.124-1.167-4.734-0.754c-1.631,0.418-2.978,1.464-3.791,2.946
				c-1.521,2.772-0.562,6.313,2.183,8.06l4.465,2.842c-19.336,6.901-32.19,25.475-31.609,46.253
				c0.707,25.321,21.098,45.659,46.422,46.302c0.416,0.011,0.831,0.016,1.245,0.016c12.45,0,24.186-4.756,33.167-13.47
				c9.286-9.01,14.433-21.076,14.494-33.974C223.113,82.753,220.62,80.01,217.422,79.828z M206.515,117.896
				c-8.697,8.438-20.165,12.912-32.246,12.608c-23.73-0.603-42.837-19.66-43.499-43.387c-0.573-20.494,12.802-38.7,32.525-44.272
				c0.569-0.161,0.991-0.641,1.076-1.226c0.086-0.585-0.18-1.166-0.678-1.483l-7.166-4.562c-1.415-0.9-1.927-2.695-1.164-4.085
				c0.41-0.747,1.086-1.273,1.906-1.483c0.252-0.065,0.507-0.097,0.76-0.097c0.567,0,1.124,0.162,1.617,0.476l17.405,11.081
				c0.891,0.567,1.413,1.541,1.396,2.671l0.005,0.061c0,0.79-0.305,1.539-0.858,2.108c-0.071,0.073-0.135,0.154-0.19,0.24
				l-10.506,16.503c-0.558,0.878-1.515,1.402-2.557,1.402c-0.691,0-1.347-0.232-1.897-0.672c-1.185-0.945-1.44-2.742-0.583-4.09
				l5.749-9.03c0.33-0.519,0.311-1.186-0.049-1.684c-0.36-0.498-0.988-0.727-1.583-0.576c-4.624,1.167-8.951,3.168-12.861,5.947
				c-3.934,2.795-7.328,6.411-10.088,10.747c-4.355,6.838-6.497,14.547-6.193,22.293c0.016,0.395,0.038,0.792,0.065,1.19
				c1.351,19.428,17.039,34.834,36.493,35.838c10.686,0.549,20.852-3.203,28.61-10.571c7.766-7.376,12.043-17.319,12.043-27.997
				c0-0.841,0.337-1.623,0.949-2.201c0.611-0.577,1.408-0.868,2.258-0.821c1.604,0.091,2.854,1.513,2.846,3.237
				C220.041,98.146,215.217,109.452,206.515,117.896z"/>
		</g>
	</g>
	<g>
		<g>
			<path class="st7" d="M175.427,145.5c-3.32,0-6.58-0.25-9.76-0.73v88.41c0,2.7-2.19,4.89-4.89,4.89h19c2.7,0,4.89-2.19,4.89-4.89
				v-88.35C181.647,145.26,178.567,145.5,175.427,145.5z"/>
		</g>
	</g>
</g>
</svg>
